<?xml version="1.0" encoding="UTF-8"?>
<!DOCTYPE svg PUBLIC "-//W3C//DTD SVG 1.1//EN" "http://www.w3.org/Graphics/SVG/1.1/DTD/svg11.dtd">
<svg xmlns="http://www.w3.org/2000/svg" version="1.1" width="100px" height="100px" style="shape-rendering:geometricPrecision; text-rendering:geometricPrecision; image-rendering:optimizeQuality; fill-rule:evenodd; clip-rule:evenodd" xmlns:xlink="http://www.w3.org/1999/xlink">
<g><path style="opacity:0.961" fill="#f0bb19" d="M 79.5,10.5 C 86.1584,9.34448 88.1584,11.8445 85.5,18C 78.7496,19.4689 76.7496,16.9689 79.5,10.5 Z"/></g>
<g><path style="opacity:0.765" fill="#f0bb17" d="M 75.5,11.5 C 77.337,11.6395 77.6704,12.3061 76.5,13.5C 75.7025,13.0431 75.3691,12.3764 75.5,11.5 Z"/></g>
<g><path style="opacity:0.989" fill="#f8dbd2" d="M 78.5,73.5 C 78.5,73.8333 78.5,74.1667 78.5,74.5C 67.9094,84.8611 55.2428,88.6944 40.5,86C 29.4791,83.0176 21.4791,76.5176 16.5,66.5C 19.9157,61.513 18.5824,58.8463 12.5,58.5C 10.8095,26.0234 26.1429,10.8568 58.5,13C 80.274,20.3598 89.4407,35.5265 86,58.5C 84.541,64.0848 82.041,69.0848 78.5,73.5 Z"/></g>
<g><path style="opacity:0.878" fill="#ed3d53" d="M 84.5,21.5 C 85.8333,21.5 87.1667,21.5 88.5,21.5C 88.5,22.8333 88.5,24.1667 88.5,25.5C 87.1667,25.5 85.8333,25.5 84.5,25.5C 84.5,24.1667 84.5,22.8333 84.5,21.5 Z"/></g>
<g><path style="opacity:0.878" fill="#ed3d53" d="M 10.5,26.5 C 11.8333,26.5 13.1667,26.5 14.5,26.5C 14.5,27.8333 14.5,29.1667 14.5,30.5C 13.1667,30.5 11.8333,30.5 10.5,30.5C 10.5,29.1667 10.5,27.8333 10.5,26.5 Z"/></g>
<g><path style="opacity:1" fill="#7c6f86" d="M 35.5,28.5 C 35.8417,27.6618 36.5084,27.3284 37.5,27.5C 45.5,28.1667 53.5,28.8333 61.5,29.5C 53.1667,29.5 44.8333,29.5 36.5,29.5C 36.5,28.8333 36.1667,28.5 35.5,28.5 Z"/></g>
<g><path style="opacity:1" fill="#53393a" d="M 66.5,40.5 C 65.6618,40.1583 65.3284,39.4916 65.5,38.5C 66.0431,38.44 66.3764,38.1067 66.5,37.5C 55.1667,36.1667 43.8333,36.1667 32.5,37.5C 32.6236,38.1067 32.9569,38.44 33.5,38.5C 33.5,39.1667 33.5,39.8333 33.5,40.5C 32.8826,40.3893 32.3826,40.056 32,39.5C 30.5189,34.8187 31.6856,31.1521 35.5,28.5C 36.1667,28.5 36.5,28.8333 36.5,29.5C 35.3734,30.1217 34.3734,30.955 33.5,32C 68.1603,32.8329 68.1603,33.3329 33.5,33.5C 32.9569,33.56 32.6236,33.8933 32.5,34.5C 43.8138,35.4988 55.1471,35.8322 66.5,35.5C 66.7373,34.209 66.404,33.209 65.5,32.5C 64.7377,30.7376 63.4044,29.7376 61.5,29.5C 53.5,28.8333 45.5,28.1667 37.5,27.5C 39.1667,27.5 40.8333,27.5 42.5,27.5C 42.33,26.1779 42.6634,25.0113 43.5,24C 47.5,23.3333 51.5,23.3333 55.5,24C 56.3366,25.0113 56.67,26.1779 56.5,27.5C 65.8795,27.2107 69.2128,31.544 66.5,40.5 Z"/></g>
<g><path style="opacity:1" fill="#a1a0ca" d="M 36.5,29.5 C 44.8333,29.5 53.1667,29.5 61.5,29.5C 63.4044,29.7376 64.7377,30.7376 65.5,32.5C 60.5442,33.8282 55.2109,34.4949 49.5,34.5C 43.9892,34.4994 38.6559,34.1661 33.5,33.5C 68.1603,33.3329 68.1603,32.8329 33.5,32C 34.3734,30.955 35.3734,30.1217 36.5,29.5 Z"/></g>
<g><path style="opacity:1" fill="#e1c3bb" d="M 44.5,24.5 C 47.8499,24.335 51.1832,24.5017 54.5,25C 54.9574,25.414 55.2907,25.914 55.5,26.5C 51.8927,27.4892 48.226,27.8226 44.5,27.5C 44.5,26.5 44.5,25.5 44.5,24.5 Z"/></g>
<g><path style="opacity:1" fill="#7b6f86" d="M 65.5,32.5 C 66.404,33.209 66.7373,34.209 66.5,35.5C 55.1471,35.8322 43.8138,35.4988 32.5,34.5C 32.6236,33.8933 32.9569,33.56 33.5,33.5C 38.6559,34.1661 43.9892,34.4994 49.5,34.5C 55.2109,34.4949 60.5442,33.8282 65.5,32.5 Z"/></g>
<g><path style="opacity:1" fill="#8887bc" d="M 65.5,38.5 C 54.8333,38.5 44.1667,38.5 33.5,38.5C 32.9569,38.44 32.6236,38.1067 32.5,37.5C 43.8333,36.1667 55.1667,36.1667 66.5,37.5C 66.3764,38.1067 66.0431,38.44 65.5,38.5 Z"/></g>
<g><path style="opacity:1" fill="#69586d" d="M 33.5,38.5 C 44.1667,38.5 54.8333,38.5 65.5,38.5C 65.3284,39.4916 65.6618,40.1583 66.5,40.5C 66.1667,41.5 65.5,42.1667 64.5,42.5C 64.5,42.1667 64.5,41.8333 64.5,41.5C 59.8806,40.1725 54.8806,39.5058 49.5,39.5C 44.5,39.6667 39.5,39.8333 34.5,40C 35.056,40.3826 35.3893,40.8826 35.5,41.5C 34.8333,41.5 34.5,41.8333 34.5,42.5C 33.6618,42.1583 33.3284,41.4916 33.5,40.5C 33.5,39.8333 33.5,39.1667 33.5,38.5 Z"/></g>
<g><path style="opacity:1" fill="#8684b7" d="M 64.5,41.5 C 63.507,49.9839 63.1736,58.6506 63.5,67.5C 54.7421,69.7569 45.7421,70.0903 36.5,68.5C 35.5278,59.5542 35.1944,50.5542 35.5,41.5C 35.3893,40.8826 35.056,40.3826 34.5,40C 39.5,39.8333 44.5,39.6667 49.5,39.5C 54.8806,39.5058 59.8806,40.1725 64.5,41.5 Z"/></g>
<g><path style="opacity:1" fill="#492d2a" d="M 64.5,41.5 C 64.5,41.8333 64.5,42.1667 64.5,42.5C 64.3284,43.4916 64.6618,44.1583 65.5,44.5C 64.5863,47.728 64.2529,51.0613 64.5,54.5C 64.8182,59.0323 64.4849,63.3656 63.5,67.5C 63.1736,58.6506 63.507,49.9839 64.5,41.5 Z"/></g>
<g><path style="opacity:1" fill="#625885" d="M 39.5,41.5 C 40.4959,41.4142 41.3292,41.7476 42,42.5C 42.6667,50.1667 42.6667,57.8333 42,65.5C 41,66.8333 40,66.8333 39,65.5C 38.2004,57.4211 38.3671,49.4211 39.5,41.5 Z"/></g>
<g><path style="opacity:1" fill="#605581" d="M 45.5,41.5 C 46.4959,41.4142 47.3292,41.7476 48,42.5C 48.6667,50.1667 48.6667,57.8333 48,65.5C 47,66.8333 46,66.8333 45,65.5C 44.2004,57.4211 44.3671,49.4211 45.5,41.5 Z"/></g>
<g><path style="opacity:1" fill="#605581" d="M 51.5,41.5 C 52.4959,41.4142 53.3292,41.7476 54,42.5C 54.6667,50.1667 54.6667,57.8333 54,65.5C 53,66.8333 52,66.8333 51,65.5C 50.2004,57.4211 50.3671,49.4211 51.5,41.5 Z"/></g>
<g><path style="opacity:1" fill="#605581" d="M 57.5,41.5 C 58.4959,41.4142 59.3292,41.7476 60,42.5C 60.6667,50.1667 60.6667,57.8333 60,65.5C 59,66.8333 58,66.8333 57,65.5C 56.2004,57.4211 56.3671,49.4211 57.5,41.5 Z"/></g>
<g><path style="opacity:1" fill="#8e706b" d="M 65.5,44.5 C 66.1174,44.6107 66.6174,44.944 67,45.5C 67.6667,48.1667 67.6667,50.8333 67,53.5C 66.3292,54.2524 65.4959,54.5858 64.5,54.5C 64.2529,51.0613 64.5863,47.728 65.5,44.5 Z"/></g>
<g><path style="opacity:0.961" fill="#facd5b" d="M 12.5,58.5 C 18.5824,58.8463 19.9157,61.513 16.5,66.5C 10.9334,67.2468 9.10005,64.9134 11,59.5C 11.3826,58.944 11.8826,58.6107 12.5,58.5 Z"/></g>
<g><path style="opacity:1" fill="#f3c343" d="M 19.5,65.5 C 21.337,65.6395 21.6704,66.3061 20.5,67.5C 19.7025,67.0431 19.3691,66.3764 19.5,65.5 Z"/></g>
<g><path style="opacity:1" fill="#563c3f" d="M 35.5,41.5 C 35.1944,50.5542 35.5278,59.5542 36.5,68.5C 45.7421,70.0903 54.7421,69.7569 63.5,67.5C 63.5,70.8333 61.8333,72.5 58.5,72.5C 52.3471,73.6533 46.0137,73.82 39.5,73C 38.0692,72.5348 36.9025,71.7014 36,70.5C 35.1828,63.2112 33.6828,56.2112 31.5,49.5C 31.6667,48.1667 31.8333,46.8333 32,45.5C 33.417,44.9221 34.2504,43.9221 34.5,42.5C 34.5,41.8333 34.8333,41.5 35.5,41.5 Z"/></g>
<g><path style="opacity:1" fill="#c3a69f" d="M 32.5,46.5 C 33.6935,46.9704 34.3601,47.9704 34.5,49.5C 34.1667,50.5 33.8333,51.5 33.5,52.5C 32.5344,50.604 32.2011,48.604 32.5,46.5 Z"/></g>
<g><path style="opacity:1" fill="#786f95" d="M 58.5,72.5 C 51.9861,72.9554 45.6527,72.4554 39.5,71C 46.1667,70.3333 52.8333,70.3333 59.5,71C 58.944,71.3826 58.6107,71.8826 58.5,72.5 Z"/></g>
<g><path style="opacity:0.835" fill="#facc58" d="M 78.5,73.5 C 79.8333,73.5 81.1667,73.5 82.5,73.5C 82.5,74.8333 82.5,76.1667 82.5,77.5C 81.1667,77.5 79.8333,77.5 78.5,77.5C 78.5,76.5 78.5,75.5 78.5,74.5C 78.5,74.1667 78.5,73.8333 78.5,73.5 Z"/></g>
<g><path style="opacity:0.878" fill="#ed3d53" d="M 22.5,84.5 C 23.8333,84.5 25.1667,84.5 26.5,84.5C 26.5,85.8333 26.5,87.1667 26.5,88.5C 25.1667,88.5 23.8333,88.5 22.5,88.5C 22.5,87.1667 22.5,85.8333 22.5,84.5 Z"/></g>
</svg>
