<?xml version="1.0" encoding="UTF-8"?>
<!DOCTYPE svg PUBLIC "-//W3C//DTD SVG 1.1//EN" "http://www.w3.org/Graphics/SVG/1.1/DTD/svg11.dtd">
<svg xmlns="http://www.w3.org/2000/svg" version="1.1" width="100px" height="100px" style="shape-rendering:geometricPrecision; text-rendering:geometricPrecision; image-rendering:optimizeQuality; fill-rule:evenodd; clip-rule:evenodd" xmlns:xlink="http://www.w3.org/1999/xlink">
<g><path style="opacity:0.966" fill="#c9ece5" d="M 88.5,51.5 C 88.1667,51.5 87.8333,51.5 87.5,51.5C 87.0679,50.2905 86.4013,49.2905 85.5,48.5C 84.0821,46.6921 82.0821,46.0254 79.5,46.5C 78.5,45.8333 77.5,45.1667 76.5,44.5C 72.5674,35.4016 65.9008,29.2349 56.5,26C 39.7639,24.7348 30.0972,32.4015 27.5,49C 27.4231,52.3328 28.0898,55.4995 29.5,58.5C 27.052,61.5748 24.052,63.9081 20.5,65.5C 17.3496,64.9576 14.3496,63.7909 11.5,62C 9.53075,58.762 7.86408,55.4286 6.5,52C 7.16667,51.6667 7.83333,51.3333 8.5,51C 3.16667,50.3333 3.16667,49.6667 8.5,49C 9.97623,44.6044 12.9762,42.1044 17.5,41.5C 18.1696,35.6627 21.1696,31.496 26.5,29C 29.8333,28.6667 33.1667,28.3333 36.5,28C 44.0612,12.9692 55.3946,9.30251 70.5,17C 73.6024,20.675 77.2691,23.3416 81.5,25C 80.062,25.2189 78.7287,25.7189 77.5,26.5C 78.3928,29.0841 78.7261,31.7508 78.5,34.5C 86.1446,37.435 89.4779,43.1017 88.5,51.5 Z"/></g>
<g><path style="opacity:1" fill="#554a44" d="M 76.5,44.5 C 75.8906,49.1261 74.8906,53.7928 73.5,58.5C 74.9492,59.1719 76.2825,59.8386 77.5,60.5C 75.8008,60.3398 74.1341,60.5065 72.5,61C 68.8903,67.2737 63.557,71.2737 56.5,73C 49.4557,72.8856 42.4557,73.0523 35.5,73.5C 36.9516,72.6981 38.6183,72.1981 40.5,72C 41.5742,71.2613 42.2409,70.2613 42.5,69C 40.5687,67.2282 39.2354,65.0615 38.5,62.5C 37.0695,62.4208 35.7362,62.7542 34.5,63.5C 33.1255,62.2887 31.6255,61.2887 30,60.5C 26.8271,63.5638 23.1604,65.8971 19,67.5C 18.2797,69.1124 18.4464,70.6124 19.5,72C 23.0252,72.1787 26.3586,72.6787 29.5,73.5C 26.8333,73.5 24.1667,73.5 21.5,73.5C 18.512,73.8453 17.1787,72.512 17.5,69.5C 17.1104,67.0182 18.1104,65.6848 20.5,65.5C 24.052,63.9081 27.052,61.5748 29.5,58.5C 28.0898,55.4995 27.4231,52.3328 27.5,49C 30.0972,32.4015 39.7639,24.7348 56.5,26C 65.9008,29.2349 72.5674,35.4016 76.5,44.5 Z"/></g>
<g><path style="opacity:1" fill="#5ab59a" d="M 67.5,60.5 C 58.263,70.0676 48.5963,70.7343 38.5,62.5C 31.9102,55.3583 30.9102,47.3583 35.5,38.5C 32.6137,41.4827 31.2803,45.1493 31.5,49.5C 31.8612,53.7105 32.6945,57.7105 34,61.5C 30.1274,58.4385 28.6274,54.4385 29.5,49.5C 31.387,32.7909 40.7204,25.6242 57.5,28C 73.5959,35.0457 77.7625,46.5457 70,62.5C 62.672,71.343 53.8387,73.6764 43.5,69.5C 48.804,69.9744 54.1373,69.4744 59.5,68C 63.3439,66.6533 66.0106,64.1533 67.5,60.5 Z"/></g>
<g><path style="opacity:1" fill="#66583f" d="M 53.5,36.5 C 54.9063,36.9731 55.573,37.9731 55.5,39.5C 54.0937,39.0269 53.427,38.0269 53.5,36.5 Z"/></g>
<g><path style="opacity:1" fill="#ead75b" d="M 51.5,37.5 C 53.1396,41.4409 55.3063,45.1076 58,48.5C 58.4643,47.9056 58.631,47.2389 58.5,46.5C 59.1667,46.8333 59.8333,47.1667 60.5,47.5C 60.4828,49.5648 60.1495,51.5648 59.5,53.5C 58.8333,53.8333 58.1667,54.1667 57.5,54.5C 56.9232,53.2267 56.2565,53.2267 55.5,54.5C 53.7033,56.9553 52.37,59.622 51.5,62.5C 49.3888,63.7416 47.3888,63.7416 45.5,62.5C 46.3382,62.1583 46.6716,61.4916 46.5,60.5C 47.9063,60.0269 48.573,59.0269 48.5,57.5C 49.9063,57.0269 50.573,56.0269 50.5,54.5C 51.3382,54.1583 51.6716,53.4916 51.5,52.5C 54.0136,49.9679 53.6803,47.6346 50.5,45.5C 50.6716,44.5084 50.3382,43.8417 49.5,43.5C 49.573,41.9731 48.9063,40.9731 47.5,40.5C 46.2737,36.7526 47.607,35.7526 51.5,37.5 Z"/></g>
<g><path style="opacity:1" fill="#4d544a" d="M 40.5,33.5 C 39.1667,35.5 37.5,37.1667 35.5,38.5C 36.1667,35.8333 37.8333,34.1667 40.5,33.5 Z"/></g>
<g><path style="opacity:1" fill="#75714c" d="M 53.5,36.5 C 52.5084,36.3284 51.8417,36.6618 51.5,37.5C 47.607,35.7526 46.2737,36.7526 47.5,40.5C 45.461,39.089 44.461,37.089 44.5,34.5C 48.0122,33.9455 51.0122,34.6122 53.5,36.5 Z"/></g>
<g><path style="opacity:1" fill="#4e5c51" d="M 62.5,33.5 C 65.3228,34.1476 66.8228,35.8142 67,38.5C 65.2927,36.9625 63.7927,35.2959 62.5,33.5 Z"/></g>
<g><path style="opacity:1" fill="#4e594f" d="M 62.5,33.5 C 58.9886,32.0382 55.3219,31.0382 51.5,30.5C 47.6781,31.0382 44.0114,32.0382 40.5,33.5C 43.4827,30.6137 47.1493,29.2803 51.5,29.5C 55.8507,29.2803 59.5173,30.6137 62.5,33.5 Z"/></g>
<g><path style="opacity:1" fill="#605641" d="M 47.5,40.5 C 48.9063,40.9731 49.573,41.9731 49.5,43.5C 48.0937,43.0269 47.427,42.0269 47.5,40.5 Z"/></g>
<g><path style="opacity:1" fill="#c9b451" d="M 53.5,36.5 C 53.427,38.0269 54.0937,39.0269 55.5,39.5C 55.3284,40.4916 55.6618,41.1583 56.5,41.5C 56.427,43.0269 57.0937,44.0269 58.5,44.5C 58.5,45.1667 58.5,45.8333 58.5,46.5C 58.631,47.2389 58.4643,47.9056 58,48.5C 55.3063,45.1076 53.1396,41.4409 51.5,37.5C 51.8417,36.6618 52.5084,36.3284 53.5,36.5 Z"/></g>
<g><path style="opacity:1" fill="#67563b" d="M 56.5,41.5 C 57.9063,41.9731 58.573,42.9731 58.5,44.5C 57.0937,44.0269 56.427,43.0269 56.5,41.5 Z"/></g>
<g><path style="opacity:1" fill="#67593f" d="M 58.5,44.5 C 59.9063,44.9731 60.573,45.9731 60.5,47.5C 59.8333,47.1667 59.1667,46.8333 58.5,46.5C 58.5,45.8333 58.5,45.1667 58.5,44.5 Z"/></g>
<g><path style="opacity:1" fill="#f5f3e7" d="M 76.5,44.5 C 76.7086,45.9217 77.2086,47.255 78,48.5C 78.7172,47.9558 79.2172,47.2891 79.5,46.5C 82.0821,46.0254 84.0821,46.6921 85.5,48.5C 85.2852,50.1788 85.9519,51.1788 87.5,51.5C 90.1667,54.1667 90.1667,56.8333 87.5,59.5C 84.0977,59.3424 80.7644,59.6758 77.5,60.5C 76.2825,59.8386 74.9492,59.1719 73.5,58.5C 74.8906,53.7928 75.8906,49.1261 76.5,44.5 Z"/></g>
<g><path style="opacity:1" fill="#6f5b57" d="M 76.5,44.5 C 77.5,45.1667 78.5,45.8333 79.5,46.5C 79.2172,47.2891 78.7172,47.9558 78,48.5C 77.2086,47.255 76.7086,45.9217 76.5,44.5 Z"/></g>
<g><path style="opacity:1" fill="#655a41" d="M 60.5,47.5 C 62.8118,49.6523 62.4785,51.6523 59.5,53.5C 60.1495,51.5648 60.4828,49.5648 60.5,47.5 Z"/></g>
<g><path style="opacity:1" fill="#5e6b57" d="M 50.5,45.5 C 53.6803,47.6346 54.0136,49.9679 51.5,52.5C 51.552,50.0971 51.2186,47.7638 50.5,45.5 Z"/></g>
<g><path style="opacity:1" fill="#594441" d="M 85.5,48.5 C 86.4013,49.2905 87.0679,50.2905 87.5,51.5C 85.9519,51.1788 85.2852,50.1788 85.5,48.5 Z"/></g>
<g><path style="opacity:1" fill="#4f584d" d="M 67.5,60.5 C 69.2868,56.0195 70.4535,51.3529 71,46.5C 72.2552,51.8991 71.0886,56.5658 67.5,60.5 Z"/></g>
<g><path style="opacity:1" fill="#5f5945" d="M 59.5,53.5 C 59.2503,55.674 58.2503,57.3406 56.5,58.5C 56.8333,57.1667 57.1667,55.8333 57.5,54.5C 58.1667,54.1667 58.8333,53.8333 59.5,53.5 Z"/></g>
<g><path style="opacity:1" fill="#c3ae51" d="M 57.5,54.5 C 57.1667,55.8333 56.8333,57.1667 56.5,58.5C 55.0937,58.9731 54.427,59.9731 54.5,61.5C 54.6716,62.4916 54.3382,63.1583 53.5,63.5C 52.5084,63.6716 51.8417,63.3382 51.5,62.5C 52.37,59.622 53.7033,56.9553 55.5,54.5C 56.2565,53.2267 56.9232,53.2267 57.5,54.5 Z"/></g>
<g><path style="opacity:1" fill="#61533c" d="M 50.5,54.5 C 50.573,56.0269 49.9063,57.0269 48.5,57.5C 48.427,55.9731 49.0937,54.9731 50.5,54.5 Z"/></g>
<g><path style="opacity:0.294" fill="#533a36" d="M 87.5,51.5 C 87.8333,51.5 88.1667,51.5 88.5,51.5C 90.7687,53.7991 91.102,56.4658 89.5,59.5C 88.8333,59.5 88.1667,59.5 87.5,59.5C 90.1667,56.8333 90.1667,54.1667 87.5,51.5 Z"/></g>
<g><path style="opacity:1" fill="#615740" d="M 48.5,57.5 C 48.573,59.0269 47.9063,60.0269 46.5,60.5C 46.427,58.9731 47.0937,57.9731 48.5,57.5 Z"/></g>
<g><path style="opacity:1" fill="#5e5843" d="M 56.5,58.5 C 56.573,60.0269 55.9063,61.0269 54.5,61.5C 54.427,59.9731 55.0937,58.9731 56.5,58.5 Z"/></g>
<g><path style="opacity:0.968" fill="#c5e9e2" d="M 87.5,59.5 C 88.1667,59.5 88.8333,59.5 89.5,59.5C 92.6023,70.5843 88.269,76.0843 76.5,76C 70.6861,82.2645 64.1861,83.0978 57,78.5C 50.8942,85.0917 43.3942,87.2583 34.5,85C 28.7568,82.7566 24.4235,78.9233 21.5,73.5C 24.1667,73.5 26.8333,73.5 29.5,73.5C 31.3591,73.1121 33.3591,73.1121 35.5,73.5C 42.4557,73.0523 49.4557,72.8856 56.5,73C 63.557,71.2737 68.8903,67.2737 72.5,61C 74.1341,60.5065 75.8008,60.3398 77.5,60.5C 80.7644,59.6758 84.0977,59.3424 87.5,59.5 Z"/></g>
<g><path style="opacity:1" fill="#f6f4e8" d="M 38.5,62.5 C 39.2354,65.0615 40.5687,67.2282 42.5,69C 42.2409,70.2613 41.5742,71.2613 40.5,72C 38.6183,72.1981 36.9516,72.6981 35.5,73.5C 33.3591,73.1121 31.3591,73.1121 29.5,73.5C 26.3586,72.6787 23.0252,72.1787 19.5,72C 18.4464,70.6124 18.2797,69.1124 19,67.5C 23.1604,65.8971 26.8271,63.5638 30,60.5C 31.6255,61.2887 33.1255,62.2887 34.5,63.5C 35.7362,62.7542 37.0695,62.4208 38.5,62.5 Z"/></g>
<g><path style="opacity:1" fill="#523b31" d="M 45.5,62.5 C 47.3888,63.7416 49.3888,63.7416 51.5,62.5C 51.8417,63.3382 52.5084,63.6716 53.5,63.5C 50.6447,64.8032 47.6447,64.8032 44.5,63.5C 44.6236,62.8933 44.9569,62.56 45.5,62.5 Z"/></g>
</svg>
