<?xml version="1.0" encoding="UTF-8"?>
<!DOCTYPE svg PUBLIC "-//W3C//DTD SVG 1.1//EN" "http://www.w3.org/Graphics/SVG/1.1/DTD/svg11.dtd">
<svg xmlns="http://www.w3.org/2000/svg" version="1.1" width="100px" height="100px" style="shape-rendering:geometricPrecision; text-rendering:geometricPrecision; image-rendering:optimizeQuality; fill-rule:evenodd; clip-rule:evenodd" xmlns:xlink="http://www.w3.org/1999/xlink">
<g><path style="opacity:0.975" fill="#c7ebe4" d="M 87.5,43.5 C 83.973,41.79 80.6396,39.79 77.5,37.5C 76.8658,36.0532 75.6991,35.3866 74,35.5C 72.3009,35.3866 71.1342,36.0532 70.5,37.5C 69.5,38.1667 68.5,38.8333 67.5,39.5C 66.791,38.596 65.791,38.2627 64.5,38.5C 64.7135,36.8561 64.3802,35.3561 63.5,34C 60.2397,33.2165 57.0731,33.3832 54,34.5C 53.3333,47.5 53.3333,60.5 54,73.5C 57.3333,74.8333 60.6667,74.8333 64,73.5C 64.4996,66.8417 64.6663,60.175 64.5,53.5C 65.791,53.7373 66.791,53.404 67.5,52.5C 68.391,53.1098 69.391,53.4431 70.5,53.5C 76.5,53.5 82.5,53.5 88.5,53.5C 87.4599,55.7194 87.9599,57.7194 90,59.5C 92.4464,70.7182 87.9464,76.2182 76.5,76C 70.6861,82.2645 64.1861,83.0978 57,78.5C 50.8942,85.0917 43.3942,87.2583 34.5,85C 26.7368,82.0743 22.0702,76.5743 20.5,68.5C 22.1667,68.5 23.8333,68.5 25.5,68.5C 27.3591,68.1121 29.3591,68.1121 31.5,68.5C 32.5,68.5 33.5,68.5 34.5,68.5C 34.2606,70.4672 34.5939,72.3005 35.5,74C 38.7603,74.7835 41.9269,74.6168 45,73.5C 45.6667,60.5 45.6667,47.5 45,34.5C 41.9269,33.3832 38.7603,33.2165 35.5,34C 34.5192,41.4129 34.1858,48.9129 34.5,56.5C 30.8452,55.6481 27.1786,55.1481 23.5,55C 20.5292,57.5883 17.5292,60.0883 14.5,62.5C 14.1667,62.5 13.8333,62.5 13.5,62.5C 11.3763,61.9688 9.87627,60.6355 9,58.5C 8.21143,54.9085 8.37809,51.4085 9.5,48C 8.83333,47.6667 8.16667,47.3333 7.5,47C 10.405,44.381 13.7383,42.5477 17.5,41.5C 18.1696,35.6627 21.1696,31.496 26.5,29C 29.8333,28.6667 33.1667,28.3333 36.5,28C 44.0612,12.9692 55.3946,9.30251 70.5,17C 73.6024,20.675 77.2691,23.3416 81.5,25C 80.062,25.2189 78.7287,25.7189 77.5,26.5C 78.3928,29.0841 78.7261,31.7508 78.5,34.5C 83.131,35.7976 86.131,38.7976 87.5,43.5 Z"/></g>
<g><path style="opacity:1" fill="#4e3733" d="M 31.5,68.5 C 32.209,67.596 33.209,67.2627 34.5,67.5C 34.5,64.5 34.5,61.5 34.5,58.5C 34.5,57.8333 34.5,57.1667 34.5,56.5C 34.1858,48.9129 34.5192,41.4129 35.5,34C 38.7603,33.2165 41.9269,33.3832 45,34.5C 45.6667,47.5 45.6667,60.5 45,73.5C 41.9269,74.6168 38.7603,74.7835 35.5,74C 34.5939,72.3005 34.2606,70.4672 34.5,68.5C 33.5,68.5 32.5,68.5 31.5,68.5 Z"/></g>
<g><path style="opacity:1" fill="#95ba90" d="M 36.5,34.5 C 39.1194,34.2317 41.6194,34.565 44,35.5C 44.6667,47.8333 44.6667,60.1667 44,72.5C 41.3333,73.8333 38.6667,73.8333 36,72.5C 35.1876,59.7579 35.3542,47.0912 36.5,34.5 Z"/></g>
<g><path style="opacity:1" fill="#776661" d="M 77.5,37.5 C 75.1667,36.1667 72.8333,36.1667 70.5,37.5C 71.1342,36.0532 72.3009,35.3866 74,35.5C 75.6991,35.3866 76.8658,36.0532 77.5,37.5 Z"/></g>
<g><path style="opacity:1" fill="#f4f2e6" d="M 77.5,37.5 C 77.7713,39.3117 78.438,40.9783 79.5,42.5C 80.1667,42.1667 80.8333,41.8333 81.5,41.5C 83.8341,43.4408 86.3341,45.1075 89,46.5C 89.8249,48.7008 89.3249,50.5341 87.5,52C 81.6518,52.1728 75.9851,52.6728 70.5,53.5C 69.391,53.4431 68.391,53.1098 67.5,52.5C 66.5,52.5 65.5,52.5 64.5,52.5C 64.5,48.1667 64.5,43.8333 64.5,39.5C 65.5,39.5 66.5,39.5 67.5,39.5C 67.7828,40.2891 68.2828,40.9558 69,41.5C 69.7914,40.255 70.2914,38.9217 70.5,37.5C 72.8333,36.1667 75.1667,36.1667 77.5,37.5 Z"/></g>
<g><path style="opacity:1" fill="#6b5652" d="M 70.5,37.5 C 70.2914,38.9217 69.7914,40.255 69,41.5C 68.2828,40.9558 67.7828,40.2891 67.5,39.5C 68.5,38.8333 69.5,38.1667 70.5,37.5 Z"/></g>
<g><path style="opacity:1" fill="#a79991" d="M 77.5,43.5 C 80.0573,44.1878 82.3907,45.3545 84.5,47C 83.5,47.6667 82.5,47.6667 81.5,47C 79.6813,46.2597 78.3479,45.0931 77.5,43.5 Z"/></g>
<g><path style="opacity:0.973" fill="#5a433f" d="M 77.5,37.5 C 80.6396,39.79 83.973,41.79 87.5,43.5C 91.095,46.4239 91.4283,49.7573 88.5,53.5C 82.5,53.5 76.5,53.5 70.5,53.5C 75.9851,52.6728 81.6518,52.1728 87.5,52C 89.3249,50.5341 89.8249,48.7008 89,46.5C 86.3341,45.1075 83.8341,43.4408 81.5,41.5C 80.8333,41.8333 80.1667,42.1667 79.5,42.5C 78.438,40.9783 77.7713,39.3117 77.5,37.5 Z"/></g>
<g><path style="opacity:1" fill="#4e3732" d="M 67.5,39.5 C 66.5,39.5 65.5,39.5 64.5,39.5C 64.5,43.8333 64.5,48.1667 64.5,52.5C 65.5,52.5 66.5,52.5 67.5,52.5C 66.791,53.404 65.791,53.7373 64.5,53.5C 64.6663,60.175 64.4996,66.8417 64,73.5C 60.6667,74.8333 57.3333,74.8333 54,73.5C 53.3333,60.5 53.3333,47.5 54,34.5C 57.0731,33.3832 60.2397,33.2165 63.5,34C 64.3802,35.3561 64.7135,36.8561 64.5,38.5C 65.791,38.2627 66.791,38.596 67.5,39.5 Z"/></g>
<g><path style="opacity:1" fill="#95ba90" d="M 55.5,34.5 C 58.1194,34.2317 60.6194,34.565 63,35.5C 63.6667,47.8333 63.6667,60.1667 63,72.5C 60.3333,73.8333 57.6667,73.8333 55,72.5C 54.1876,59.7579 54.3542,47.0912 55.5,34.5 Z"/></g>
<g><path style="opacity:1" fill="#f9f7ea" d="M 34.5,58.5 C 34.5,61.5 34.5,64.5 34.5,67.5C 33.209,67.2627 32.209,67.596 31.5,68.5C 29.3591,68.1121 27.3591,68.1121 25.5,68.5C 22.3586,67.6787 19.0252,67.1787 15.5,67C 14.6634,65.9887 14.33,64.8221 14.5,63.5C 18.5416,61.1024 22.3749,58.4357 26,55.5C 27.6255,56.2887 29.1255,57.2887 30.5,58.5C 31.865,57.1931 33.1984,57.1931 34.5,58.5 Z"/></g>
<g><path style="opacity:1" fill="#70605c" d="M 34.5,56.5 C 34.5,57.1667 34.5,57.8333 34.5,58.5C 33.1984,57.1931 31.865,57.1931 30.5,58.5C 29.1255,57.2887 27.6255,56.2887 26,55.5C 22.3749,58.4357 18.5416,61.1024 14.5,63.5C 14.5,63.1667 14.5,62.8333 14.5,62.5C 17.5292,60.0883 20.5292,57.5883 23.5,55C 27.1786,55.1481 30.8452,55.6481 34.5,56.5 Z"/></g>
<g><path style="opacity:1" fill="#4a2f2c" d="M 13.5,62.5 C 13.8333,62.5 14.1667,62.5 14.5,62.5C 14.5,62.8333 14.5,63.1667 14.5,63.5C 14.33,64.8221 14.6634,65.9887 15.5,67C 19.0252,67.1787 22.3586,67.6787 25.5,68.5C 23.8333,68.5 22.1667,68.5 20.5,68.5C 15.0687,69.9064 12.7353,67.9064 13.5,62.5 Z"/></g>
</svg>
