<?xml version="1.0" encoding="UTF-8"?>
<!DOCTYPE svg PUBLIC "-//W3C//DTD SVG 1.1//EN" "http://www.w3.org/Graphics/SVG/1.1/DTD/svg11.dtd">
<svg xmlns="http://www.w3.org/2000/svg" version="1.1" width="100px" height="100px" style="shape-rendering:geometricPrecision; text-rendering:geometricPrecision; image-rendering:optimizeQuality; fill-rule:evenodd; clip-rule:evenodd" xmlns:xlink="http://www.w3.org/1999/xlink">
<g><path style="opacity:0.976" fill="#c6eae3" d="M 70.5,17.5 C 70.1667,18.1667 69.8333,18.8333 69.5,19.5C 64.9171,21.7531 60.9171,24.7531 57.5,28.5C 56.7904,31.8595 58.1238,33.6929 61.5,34C 66.8854,34.2139 72.2187,34.7139 77.5,35.5C 78.1835,35.1373 78.8501,34.8039 79.5,34.5C 80.209,35.404 81.209,35.7373 82.5,35.5C 88.3175,41.0502 89.9842,47.7169 87.5,55.5C 90.8356,60.5243 91.3356,65.8577 89,71.5C 85.5884,74.8789 81.4217,76.3789 76.5,76C 70.6861,82.2645 64.1861,83.0978 57,78.5C 50.8942,85.0917 43.3942,87.2583 34.5,85C 24.861,81.5328 20.1943,74.6994 20.5,64.5C 15.4081,64.9073 11.5748,62.9073 9,58.5C 7.95948,53.5602 8.62615,48.8935 11,44.5C 12.1711,43.1068 13.6711,42.2735 15.5,42C 13.8333,41.6667 12.1667,41.3333 10.5,41C 12.8098,40.5034 15.1432,40.3367 17.5,40.5C 20.2713,30.4488 26.938,26.4488 37.5,28.5C 39.1434,21.3517 43.4767,16.5183 50.5,14C 55.1667,13.3333 59.8333,13.3333 64.5,14C 66.7274,14.941 68.7274,16.1077 70.5,17.5 Z"/></g>
<g><path style="opacity:1" fill="#f6f4e7" d="M 79.5,34.5 C 78.8501,34.8039 78.1835,35.1373 77.5,35.5C 72.2187,34.7139 66.8854,34.2139 61.5,34C 58.1238,33.6929 56.7904,31.8595 57.5,28.5C 60.6599,27.6832 63.3266,26.0165 65.5,23.5C 66.1667,23.8333 66.8333,24.1667 67.5,24.5C 68.562,22.9783 69.2287,21.3117 69.5,19.5C 74.0259,17.335 76.8593,18.6684 78,23.5C 79.4659,21.6751 81.2992,21.1751 83.5,22C 84.8329,24.5814 86.6663,26.7481 89,28.5C 89.8249,30.7008 89.3249,32.5341 87.5,34C 84.854,34.4974 82.1873,34.6641 79.5,34.5 Z"/></g>
<g><path style="opacity:1" fill="#7e6c67" d="M 69.5,19.5 C 69.2287,21.3117 68.562,22.9783 67.5,24.5C 66.8333,24.1667 66.1667,23.8333 65.5,23.5C 63.3266,26.0165 60.6599,27.6832 57.5,28.5C 60.9171,24.7531 64.9171,21.7531 69.5,19.5 Z"/></g>
<g><path style="opacity:0.808" fill="#503533" d="M 70.5,17.5 C 75.2139,18.3598 79.8806,19.5264 84.5,21C 85.8329,23.5814 87.6663,25.7481 90,27.5C 91.5001,33.8347 89.0001,36.5013 82.5,35.5C 81.209,35.7373 80.209,35.404 79.5,34.5C 82.1873,34.6641 84.854,34.4974 87.5,34C 89.3249,32.5341 89.8249,30.7008 89,28.5C 86.6663,26.7481 84.8329,24.5814 83.5,22C 81.2992,21.1751 79.4659,21.6751 78,23.5C 76.8593,18.6684 74.0259,17.335 69.5,19.5C 69.8333,18.8333 70.1667,18.1667 70.5,17.5 Z"/></g>
<g><path style="opacity:1" fill="#9cca9b" d="M 61.5,40.5 C 66.1983,43.8355 71.1983,46.8355 76.5,49.5C 77.8333,50.5 77.8333,51.5 76.5,52.5C 64.053,59.722 51.3863,66.3887 38.5,72.5C 38.5,69.5 38.5,66.5 38.5,63.5C 39.8333,63.5 41.1667,63.5 42.5,63.5C 42.5,64.5 42.5,65.5 42.5,66.5C 45.7541,66.2064 48.4208,64.873 50.5,62.5C 48.1602,63.086 45.9935,64.086 44,65.5C 43.5948,55.9123 43.5948,46.2457 44,36.5C 44.7175,37.4506 45.5509,37.6172 46.5,37C 45.4366,35.8118 44.1033,35.3118 42.5,35.5C 42.6663,42.175 42.4996,48.8417 42,55.5C 41.6232,54.0577 40.7899,53.0577 39.5,52.5C 38.5343,44.9196 38.201,37.253 38.5,29.5C 46.2773,32.8883 53.944,36.5549 61.5,40.5 Z"/></g>
<g><path style="opacity:1" fill="#5d4a45" d="M 37.5,28.5 C 46.2986,30.8993 54.2986,34.8993 61.5,40.5C 53.944,36.5549 46.2773,32.8883 38.5,29.5C 38.201,37.253 38.5343,44.9196 39.5,52.5C 36.6631,54.2607 34.3298,53.7607 32.5,51C 31.5,50.3333 30.5,50.3333 29.5,51C 26.5128,53.6742 23.3462,56.1742 20,58.5C 19.5172,59.448 19.3505,60.448 19.5,61.5C 18.4017,60.3991 18.235,59.0657 19,57.5C 22.3462,55.1742 25.5128,52.6742 28.5,50C 31.7286,49.4138 34.7286,49.9138 37.5,51.5C 37.5,43.8333 37.5,36.1667 37.5,28.5 Z"/></g>
<g><path style="opacity:1" fill="#f9f7ea" d="M 39.5,52.5 C 40.3777,55.0563 41.7111,57.3896 43.5,59.5C 43.0233,60.4776 42.3567,61.3109 41.5,62C 39.6183,62.1981 37.9516,62.6981 36.5,63.5C 34.3591,63.1121 32.3591,63.1121 30.5,63.5C 26.9787,62.6931 23.312,62.0264 19.5,61.5C 19.3505,60.448 19.5172,59.448 20,58.5C 23.3462,56.1742 26.5128,53.6742 29.5,51C 30.5,50.3333 31.5,50.3333 32.5,51C 34.3298,53.7607 36.6631,54.2607 39.5,52.5 Z"/></g>
<g><path style="opacity:1" fill="#583f3c" d="M 19.5,61.5 C 23.312,62.0264 26.9787,62.6931 30.5,63.5C 27.1501,63.665 23.8168,63.4983 20.5,63C 19.944,62.6174 19.6107,62.1174 19.5,61.5 Z"/></g>
<g><path style="opacity:1" fill="#56423c" d="M 50.5,62.5 C 48.4208,64.873 45.7541,66.2064 42.5,66.5C 42.5,65.5 42.5,64.5 42.5,63.5C 41.1667,63.5 39.8333,63.5 38.5,63.5C 38.5,66.5 38.5,69.5 38.5,72.5C 51.3863,66.3887 64.053,59.722 76.5,52.5C 77.8333,51.5 77.8333,50.5 76.5,49.5C 71.1983,46.8355 66.1983,43.8355 61.5,40.5C 67.4235,42.7951 73.0901,45.6284 78.5,49C 79.5171,50.0495 79.6838,51.2161 79,52.5C 66.9142,59.46 54.7476,66.2933 42.5,73C 40.8659,73.4935 39.1992,73.6602 37.5,73.5C 37.8128,69.9581 37.4794,66.6248 36.5,63.5C 37.9516,62.6981 39.6183,62.1981 41.5,62C 42.3567,61.3109 43.0233,60.4776 43.5,59.5C 41.7111,57.3896 40.3777,55.0563 39.5,52.5C 40.7899,53.0577 41.6232,54.0577 42,55.5C 42.4996,48.8417 42.6663,42.175 42.5,35.5C 44.1033,35.3118 45.4366,35.8118 46.5,37C 45.5509,37.6172 44.7175,37.4506 44,36.5C 43.5948,46.2457 43.5948,55.9123 44,65.5C 45.9935,64.086 48.1602,63.086 50.5,62.5 Z"/></g>
<g><path style="opacity:1" fill="#646150" d="M 50.5,62.5 C 52.3307,60.2513 54.6641,59.0846 57.5,59C 55.4234,60.705 53.09,61.8717 50.5,62.5 Z"/></g>
<g><path style="opacity:1" fill="#686855" d="M 62.5,54.5 C 64.3786,54.3932 64.7119,54.8932 63.5,56C 58.6982,57.9397 58.3649,57.4397 62.5,54.5 Z"/></g>
<g><path style="opacity:1" fill="#656250" d="M 68.5,50.5 C 69.4971,49.2875 70.4971,49.4542 71.5,51C 70.0863,52.5484 68.4196,53.215 66.5,53C 67.3279,52.0853 68.3279,51.4186 69.5,51C 69.2716,50.6012 68.9382,50.4346 68.5,50.5 Z"/></g>
<g><path style="opacity:1" fill="#625d4d" d="M 59.5,45.5 C 61.9705,45.0275 64.3038,45.8608 66.5,48C 64.0369,47.7796 61.7035,46.9462 59.5,45.5 Z"/></g>
<g><path style="opacity:1" fill="#646150" d="M 52.5,41.5 C 54.2632,40.6655 55.9299,41.1655 57.5,43C 55.7184,43.1218 54.0518,42.6218 52.5,41.5 Z"/></g>
</svg>
