<?xml version="1.0" encoding="UTF-8"?>
<!DOCTYPE svg PUBLIC "-//W3C//DTD SVG 1.1//EN" "http://www.w3.org/Graphics/SVG/1.1/DTD/svg11.dtd">
<svg xmlns="http://www.w3.org/2000/svg" version="1.1" width="32px" height="32px" style="shape-rendering:geometricPrecision; text-rendering:geometricPrecision; image-rendering:optimizeQuality; fill-rule:evenodd; clip-rule:evenodd" xmlns:xlink="http://www.w3.org/1999/xlink">
<g><path style="opacity:1" fill="#c4dbcf" d="M 27.5,21.5 C 26.9744,23.2303 25.9744,24.5637 24.5,25.5C 23.8501,25.1961 23.1835,24.8627 22.5,24.5C 14.4592,28.6257 8.62588,26.6257 5,18.5C 4.69349,6.81513 10.1935,2.64847 21.5,6C 26.3096,9.65081 27.6429,14.3175 25.5,20C 25.8361,21.0299 26.5028,21.5299 27.5,21.5 Z"/></g>
<g><path style="opacity:1" fill="#262d29" d="M 27.5,21.5 C 26.5028,21.5299 25.8361,21.0299 25.5,20C 27.6429,14.3175 26.3096,9.65081 21.5,6C 10.1935,2.64847 4.69349,6.81513 5,18.5C 8.62588,26.6257 14.4592,28.6257 22.5,24.5C 23.1835,24.8627 23.8501,25.1961 24.5,25.5C 18.7261,29.3034 12.7261,29.47 6.5,26C 1.80442,19.8691 1.30442,13.3691 5,6.5C 11.1309,1.80442 17.6309,1.30442 24.5,5C 28.4787,9.94134 29.4787,15.4413 27.5,21.5 Z"/></g>
<g><path style="opacity:1" fill="#1f2a24" d="M 11.5,9.5 C 26.1429,13.674 26.1429,17.5073 11.5,21C 10.1998,17.1675 10.1998,13.3342 11.5,9.5 Z"/></g>
<g><path style="opacity:1" fill="#039752" d="M 12.5,12.5 C 19.6859,14.282 20.0192,16.6153 13.5,19.5C 12.5258,17.2573 12.1924,14.924 12.5,12.5 Z"/></g>
</svg>
