<?xml version="1.0" encoding="UTF-8"?>
<!DOCTYPE svg PUBLIC "-//W3C//DTD SVG 1.1//EN" "http://www.w3.org/Graphics/SVG/1.1/DTD/svg11.dtd">
<svg xmlns="http://www.w3.org/2000/svg" version="1.1" width="100px" height="100px" style="shape-rendering:geometricPrecision; text-rendering:geometricPrecision; image-rendering:optimizeQuality; fill-rule:evenodd; clip-rule:evenodd" xmlns:xlink="http://www.w3.org/1999/xlink">
<g><path style="opacity:0.966" fill="#c9ece5" d="M 88.5,51.5 C 88.1667,51.5 87.8333,51.5 87.5,51.5C 87.0679,50.2905 86.4013,49.2905 85.5,48.5C 84.0821,46.6921 82.0821,46.0254 79.5,46.5C 78.5,45.8333 77.5,45.1667 76.5,44.5C 72.5674,35.4016 65.9008,29.2349 56.5,26C 39.7639,24.7348 30.0972,32.4015 27.5,49C 27.4231,52.3328 28.0898,55.4995 29.5,58.5C 27.052,61.5748 24.052,63.9081 20.5,65.5C 17.3496,64.9576 14.3496,63.7909 11.5,62C 9.53075,58.762 7.86408,55.4286 6.5,52C 7.16667,51.6667 7.83333,51.3333 8.5,51C 3.16667,50.3333 3.16667,49.6667 8.5,49C 9.97623,44.6044 12.9762,42.1044 17.5,41.5C 18.1696,35.6627 21.1696,31.496 26.5,29C 29.8333,28.6667 33.1667,28.3333 36.5,28C 44.0612,12.9692 55.3946,9.30251 70.5,17C 73.6024,20.675 77.2691,23.3416 81.5,25C 80.062,25.2189 78.7287,25.7189 77.5,26.5C 78.3928,29.0841 78.7261,31.7508 78.5,34.5C 86.1446,37.435 89.4779,43.1017 88.5,51.5 Z"/></g>
<g><path style="opacity:1" fill="#f5f3e7" d="M 76.5,44.5 C 76.7086,45.9217 77.2086,47.255 78,48.5C 78.7172,47.9558 79.2172,47.2891 79.5,46.5C 82.0821,46.0254 84.0821,46.6921 85.5,48.5C 85.2852,50.1788 85.9519,51.1788 87.5,51.5C 90.1667,54.1667 90.1667,56.8333 87.5,59.5C 84.0977,59.3424 80.7644,59.6758 77.5,60.5C 76.2825,59.8386 74.9492,59.1719 73.5,58.5C 74.8906,53.7928 75.8906,49.1261 76.5,44.5 Z"/></g>
<g><path style="opacity:1" fill="#6f5b57" d="M 76.5,44.5 C 77.5,45.1667 78.5,45.8333 79.5,46.5C 79.2172,47.2891 78.7172,47.9558 78,48.5C 77.2086,47.255 76.7086,45.9217 76.5,44.5 Z"/></g>
<g><path style="opacity:1" fill="#594441" d="M 85.5,48.5 C 86.4013,49.2905 87.0679,50.2905 87.5,51.5C 85.9519,51.1788 85.2852,50.1788 85.5,48.5 Z"/></g>
<g><path style="opacity:1" fill="#554941" d="M 76.5,44.5 C 75.8906,49.1261 74.8906,53.7928 73.5,58.5C 74.9492,59.1719 76.2825,59.8386 77.5,60.5C 75.8008,60.3398 74.1341,60.5065 72.5,61C 68.9605,67.3788 63.6272,71.2121 56.5,72.5C 55.5084,72.6716 54.8417,72.3382 54.5,71.5C 69.7061,67.7792 75.8728,58.1126 73,42.5C 65.2939,27.4868 53.7939,23.6535 38.5,31C 30.4251,37.3223 27.5917,45.489 30,55.5C 30.5182,58.0226 31.8515,60.0226 34,61.5C 32.6945,57.7105 31.8612,53.7105 31.5,49.5C 31.2803,45.1493 32.6137,41.4827 35.5,38.5C 30.7772,47.3877 31.7772,55.3877 38.5,62.5C 37.0695,62.4208 35.7362,62.7542 34.5,63.5C 33.1255,62.2887 31.6255,61.2887 30,60.5C 26.8271,63.5638 23.1604,65.8971 19,67.5C 18.2797,69.1124 18.4464,70.6124 19.5,72C 23.0252,72.1787 26.3586,72.6787 29.5,73.5C 26.8333,73.5 24.1667,73.5 21.5,73.5C 18.512,73.8453 17.1787,72.512 17.5,69.5C 17.1104,67.0182 18.1104,65.6848 20.5,65.5C 24.052,63.9081 27.052,61.5748 29.5,58.5C 28.0898,55.4995 27.4231,52.3328 27.5,49C 30.0972,32.4015 39.7639,24.7348 56.5,26C 65.9008,29.2349 72.5674,35.4016 76.5,44.5 Z"/></g>
<g><path style="opacity:1" fill="#5fba8f" d="M 54.5,71.5 C 51.1501,71.665 47.8168,71.4983 44.5,71C 44.0426,70.586 43.7093,70.086 43.5,69.5C 47.7129,69.4374 52.0462,69.2708 56.5,69C 67.5081,65.4846 72.3415,57.9846 71,46.5C 70.0931,61.4122 62.2597,68.5788 47.5,68C 43.7996,67.1572 40.7996,65.3239 38.5,62.5C 31.7772,55.3877 30.7772,47.3877 35.5,38.5C 32.6137,41.4827 31.2803,45.1493 31.5,49.5C 31.8612,53.7105 32.6945,57.7105 34,61.5C 31.8515,60.0226 30.5182,58.0226 30,55.5C 27.5917,45.489 30.4251,37.3223 38.5,31C 53.7939,23.6535 65.2939,27.4868 73,42.5C 75.8728,58.1126 69.7061,67.7792 54.5,71.5 Z"/></g>
<g><path style="opacity:1" fill="#505a4a" d="M 67.5,40.5 C 67.56,39.9569 67.8933,39.6236 68.5,39.5C 69.5827,40.365 69.7494,41.365 69,42.5C 68.7216,41.5842 68.2216,40.9175 67.5,40.5 Z"/></g>
<g><path style="opacity:1" fill="#4e5748" d="M 40.5,33.5 C 39.1667,35.5 37.5,37.1667 35.5,38.5C 36.1667,35.8333 37.8333,34.1667 40.5,33.5 Z"/></g>
<g><path style="opacity:1" fill="#505e4d" d="M 62.5,33.5 C 65.3228,34.1476 66.8228,35.8142 67,38.5C 65.2927,36.9625 63.7927,35.2959 62.5,33.5 Z"/></g>
<g><path style="opacity:1" fill="#505b4b" d="M 62.5,33.5 C 58.9886,32.0382 55.3219,31.0382 51.5,30.5C 47.6781,31.0382 44.0114,32.0382 40.5,33.5C 43.4827,30.6137 47.1493,29.2803 51.5,29.5C 55.8507,29.2803 59.5173,30.6137 62.5,33.5 Z"/></g>
<g><path style="opacity:1" fill="#544033" d="M 49.5,35.5 C 53.1817,35.3347 56.8484,35.5014 60.5,36C 57.3039,40.364 54.3039,44.864 51.5,49.5C 54.3039,54.136 57.3039,58.636 60.5,63C 56.7887,63.8253 53.122,63.6586 49.5,62.5C 46.7467,57.9924 43.7467,53.6591 40.5,49.5C 44.02,45.1164 47.02,40.4497 49.5,35.5 Z"/></g>
<g><path style="opacity:1" fill="#e3cf59" d="M 57.5,61.5 C 56.1266,61.6567 54.7932,61.49 53.5,61C 51.3681,57.2359 48.8681,53.7359 46,50.5C 47.0423,54.0997 48.8756,57.433 51.5,60.5C 51.3764,61.1067 51.0431,61.44 50.5,61.5C 47.8435,57.5286 45.1769,53.5286 42.5,49.5C 45.1769,45.4714 47.8435,41.4714 50.5,37.5C 51.3543,38.6316 51.3543,39.965 50.5,41.5C 51.9063,41.0269 52.573,40.0269 52.5,38.5C 53.9362,36.6815 55.6029,36.3482 57.5,37.5C 54.8333,41.5 52.1667,45.5 49.5,49.5C 52.1769,53.5286 54.8435,57.5286 57.5,61.5 Z"/></g>
<g><path style="opacity:1" fill="#785e38" d="M 50.5,41.5 C 50.5386,42.7562 50.0386,43.7562 49,44.5C 48.4153,43.0024 48.9153,42.0024 50.5,41.5 Z"/></g>
<g><path style="opacity:1" fill="#8f763f" d="M 50.5,37.5 C 51.6226,36.2426 52.2893,36.5759 52.5,38.5C 52.573,40.0269 51.9063,41.0269 50.5,41.5C 51.3543,39.965 51.3543,38.6316 50.5,37.5 Z"/></g>
<g><path style="opacity:0.294" fill="#533a36" d="M 87.5,51.5 C 87.8333,51.5 88.1667,51.5 88.5,51.5C 90.7687,53.7991 91.102,56.4658 89.5,59.5C 88.8333,59.5 88.1667,59.5 87.5,59.5C 90.1667,56.8333 90.1667,54.1667 87.5,51.5 Z"/></g>
<g><path style="opacity:1" fill="#856c3c" d="M 57.5,61.5 C 55.1667,62.8333 52.8333,62.8333 50.5,61.5C 51.0431,61.44 51.3764,61.1067 51.5,60.5C 48.8756,57.433 47.0423,54.0997 46,50.5C 48.8681,53.7359 51.3681,57.2359 53.5,61C 54.7932,61.49 56.1266,61.6567 57.5,61.5 Z"/></g>
<g><path style="opacity:0.968" fill="#c5e9e2" d="M 87.5,59.5 C 88.1667,59.5 88.8333,59.5 89.5,59.5C 92.6023,70.5843 88.269,76.0843 76.5,76C 70.6861,82.2645 64.1861,83.0978 57,78.5C 50.8942,85.0917 43.3942,87.2583 34.5,85C 28.7568,82.7566 24.4235,78.9233 21.5,73.5C 24.1667,73.5 26.8333,73.5 29.5,73.5C 31.3591,73.1121 33.3591,73.1121 35.5,73.5C 42.6273,73.2559 49.6273,72.9225 56.5,72.5C 63.6272,71.2121 68.9605,67.3788 72.5,61C 74.1341,60.5065 75.8008,60.3398 77.5,60.5C 80.7644,59.6758 84.0977,59.3424 87.5,59.5 Z"/></g>
<g><path style="opacity:1" fill="#f6f4e8" d="M 38.5,62.5 C 39.5916,65.1015 40.9249,67.6015 42.5,70C 40.4522,71.832 38.1189,72.9987 35.5,73.5C 33.3591,73.1121 31.3591,73.1121 29.5,73.5C 26.3586,72.6787 23.0252,72.1787 19.5,72C 18.4464,70.6124 18.2797,69.1124 19,67.5C 23.1604,65.8971 26.8271,63.5638 30,60.5C 31.6255,61.2887 33.1255,62.2887 34.5,63.5C 35.7362,62.7542 37.0695,62.4208 38.5,62.5 Z"/></g>
<g><path style="opacity:1" fill="#56564a" d="M 54.5,71.5 C 54.8417,72.3382 55.5084,72.6716 56.5,72.5C 49.6273,72.9225 42.6273,73.2559 35.5,73.5C 38.1189,72.9987 40.4522,71.832 42.5,70C 40.9249,67.6015 39.5916,65.1015 38.5,62.5C 40.7996,65.3239 43.7996,67.1572 47.5,68C 62.2597,68.5788 70.0931,61.4122 71,46.5C 72.3415,57.9846 67.5081,65.4846 56.5,69C 52.0462,69.2708 47.7129,69.4374 43.5,69.5C 43.7093,70.086 44.0426,70.586 44.5,71C 47.8168,71.4983 51.1501,71.665 54.5,71.5 Z"/></g>
</svg>
