<?xml version="1.0" encoding="UTF-8"?>
<!DOCTYPE svg PUBLIC "-//W3C//DTD SVG 1.1//EN" "http://www.w3.org/Graphics/SVG/1.1/DTD/svg11.dtd">
<svg xmlns="http://www.w3.org/2000/svg" version="1.1" width="100px" height="100px" style="shape-rendering:geometricPrecision; text-rendering:geometricPrecision; image-rendering:optimizeQuality; fill-rule:evenodd; clip-rule:evenodd" xmlns:xlink="http://www.w3.org/1999/xlink">
<g><path style="opacity:0.979" fill="#c6eae3" d="M 71.5,18.5 C 71.1667,19.1667 70.8333,19.8333 70.5,20.5C 69.5,21.1667 68.5,21.8333 67.5,22.5C 64.9179,22.0254 62.9179,22.6921 61.5,24.5C 60.5987,25.2905 59.9321,26.2905 59.5,27.5C 54.956,28.9776 50.2893,30.1442 45.5,31C 44.6198,32.3561 44.2865,33.8561 44.5,35.5C 50.7624,34.872 56.7624,35.7054 62.5,38C 63.5,39 64.5,40 65.5,41C 63.9644,42.5994 63.4644,44.4328 64,46.5C 67.0579,49.0621 70.3913,50.0621 74,49.5C 75.3034,47.0602 76.47,44.5602 77.5,42C 76.1073,39.6442 74.274,39.1442 72,40.5C 71.3378,39.0161 70.5045,37.6828 69.5,36.5C 69.8333,36.5 70.1667,36.5 70.5,36.5C 74.8333,36.5 79.1667,36.5 83.5,36.5C 84.8989,39.3903 87.2323,40.8903 90.5,41C 89.376,41.2492 88.376,41.7492 87.5,42.5C 87.6236,43.1067 87.9569,43.44 88.5,43.5C 90.9686,44.3171 93.6353,44.8171 96.5,45C 93.854,45.4974 91.1873,45.6641 88.5,45.5C 89.2601,48.7793 88.9268,52.1126 87.5,55.5C 91.7688,61.9623 91.4355,68.129 86.5,74C 83.2889,75.1532 79.9555,75.8198 76.5,76C 70.6861,82.2645 64.1861,83.0978 57,78.5C 52.9633,83.7365 47.63,86.0698 41,85.5C 33.8116,86.1551 28.3116,83.4884 24.5,77.5C 26.1667,77.5 27.8333,77.5 29.5,77.5C 31.3591,77.1121 33.3591,77.1121 35.5,77.5C 42.7161,78.312 44.7161,75.6454 41.5,69.5C 42.4279,68.2322 42.5946,66.8989 42,65.5C 36.0085,59.868 34.3418,53.2014 37,45.5C 38.6995,46.4061 40.5328,46.7394 42.5,46.5C 42.7892,42.8936 42.4558,39.3936 41.5,36C 37.9085,35.2114 34.4085,35.3781 31,36.5C 30.4361,38.5618 30.9361,40.3951 32.5,42C 29.9676,49.1384 29.9676,56.3051 32.5,63.5C 30.8008,63.3398 29.1341,63.5065 27.5,64C 25.6555,66.5047 23.3221,68.3381 20.5,69.5C 20.5,67.8333 20.5,66.1667 20.5,64.5C 18.4727,64.6621 16.4727,64.4955 14.5,64C 11.233,61.0916 8.23298,58.7583 5.5,57C 6.44802,56.5172 7.44802,56.3505 8.5,56.5C 8.03488,52.2076 8.86822,48.2076 11,44.5C 12.8705,42.7811 15.0372,41.7811 17.5,41.5C 17.9713,36.5296 20.3047,32.6963 24.5,30C 28.6996,28.6326 33.0329,28.1326 37.5,28.5C 39.1434,21.3517 43.4767,16.5183 50.5,14C 55.1667,13.3333 59.8333,13.3333 64.5,14C 67.2387,15.0259 69.572,16.5259 71.5,18.5 Z"/></g>
<g><path style="opacity:1" fill="#f3f0e4" d="M 70.5,36.5 C 70.1667,36.5 69.8333,36.5 69.5,36.5C 66.5262,34.0084 63.1928,32.0084 59.5,30.5C 58.4376,29.5754 58.4376,28.5754 59.5,27.5C 61.0481,27.1788 61.7148,26.1788 61.5,24.5C 62.9179,22.6921 64.9179,22.0254 67.5,22.5C 67.7828,23.2891 68.2828,23.9558 69,24.5C 69.7914,23.255 70.2914,21.9217 70.5,20.5C 75.2762,18.7245 78.2762,20.3912 79.5,25.5C 80.7678,24.5721 82.1011,24.4054 83.5,25C 86.1643,26.5953 88.1643,28.762 89.5,31.5C 89.4712,33.0293 88.8045,34.196 87.5,35C 81.6518,35.1728 75.9851,35.6728 70.5,36.5 Z"/></g>
<g><path style="opacity:1" fill="#695652" d="M 70.5,20.5 C 70.2914,21.9217 69.7914,23.255 69,24.5C 68.2828,23.9558 67.7828,23.2891 67.5,22.5C 68.5,21.8333 69.5,21.1667 70.5,20.5 Z"/></g>
<g><path style="opacity:1" fill="#56413e" d="M 61.5,24.5 C 61.7148,26.1788 61.0481,27.1788 59.5,27.5C 59.9321,26.2905 60.5987,25.2905 61.5,24.5 Z"/></g>
<g><path style="opacity:0.565" fill="#503633" d="M 71.5,18.5 C 76.1746,17.3395 78.8413,19.0061 79.5,23.5C 81.1992,23.3398 82.8659,23.5065 84.5,24C 87.4385,25.6661 89.7719,27.9994 91.5,31C 90.605,35.3934 87.9383,37.2267 83.5,36.5C 79.1667,36.5 74.8333,36.5 70.5,36.5C 75.9851,35.6728 81.6518,35.1728 87.5,35C 88.8045,34.196 89.4712,33.0293 89.5,31.5C 88.1643,28.762 86.1643,26.5953 83.5,25C 82.1011,24.4054 80.7678,24.5721 79.5,25.5C 78.2762,20.3912 75.2762,18.7245 70.5,20.5C 70.8333,19.8333 71.1667,19.1667 71.5,18.5 Z"/></g>
<g><path style="opacity:1" fill="#5b433d" d="M 35.5,77.5 C 36.9516,76.6981 38.6183,76.1981 40.5,76C 41.3567,75.3109 42.0233,74.4776 42.5,73.5C 40.3841,71.6001 39.0507,69.2668 38.5,66.5C 37.0695,66.4208 35.7362,66.7542 34.5,67.5C 33.1255,66.2887 31.6255,65.2887 30,64.5C 26.8271,67.5638 23.1604,69.8971 19,71.5C 18.2797,73.1124 18.4464,74.6124 19.5,76C 23.0252,76.1787 26.3586,76.6787 29.5,77.5C 27.8333,77.5 26.1667,77.5 24.5,77.5C 18.3261,78.8271 16.1594,76.4938 18,70.5C 18.6708,69.7476 19.5041,69.4142 20.5,69.5C 23.3221,68.3381 25.6555,66.5047 27.5,64C 29.1341,63.5065 30.8008,63.3398 32.5,63.5C 29.9676,56.3051 29.9676,49.1384 32.5,42C 30.9361,40.3951 30.4361,38.5618 31,36.5C 34.4085,35.3781 37.9085,35.2114 41.5,36C 42.4558,39.3936 42.7892,42.8936 42.5,46.5C 40.5328,46.7394 38.6995,46.4061 37,45.5C 34.3418,53.2014 36.0085,59.868 42,65.5C 42.5946,66.8989 42.4279,68.2322 41.5,69.5C 44.7161,75.6454 42.7161,78.312 35.5,77.5 Z"/></g>
<g><path style="opacity:1" fill="#61493d" d="M 59.5,27.5 C 58.4376,28.5754 58.4376,29.5754 59.5,30.5C 63.1928,32.0084 66.5262,34.0084 69.5,36.5C 70.5045,37.6828 71.3378,39.0161 72,40.5C 74.274,39.1442 76.1073,39.6442 77.5,42C 76.47,44.5602 75.3034,47.0602 74,49.5C 70.3913,50.0621 67.0579,49.0621 64,46.5C 63.4644,44.4328 63.9644,42.5994 65.5,41C 64.5,40 63.5,39 62.5,38C 56.7624,35.7054 50.7624,34.872 44.5,35.5C 44.2865,33.8561 44.6198,32.3561 45.5,31C 50.2893,30.1442 54.956,28.9776 59.5,27.5 Z"/></g>
<g><path style="opacity:1" fill="#edc055" d="M 46.5,31.5 C 57.9772,29.4912 66.4772,33.4912 72,43.5C 73.1855,41.4407 74.3521,41.274 75.5,43C 74.7221,45.3899 73.5555,47.5566 72,49.5C 69.4171,48.1258 66.9171,46.6258 64.5,45C 65.0253,44.3076 65.6919,43.8076 66.5,43.5C 67.451,44.3256 68.451,44.4922 69.5,44C 63.6977,35.2613 55.6977,31.7613 45.5,33.5C 45.8627,32.8165 46.1961,32.1499 46.5,31.5 Z"/></g>
<g><path style="opacity:1" fill="#e8bc54" d="M 38.5,66.5 C 32.8371,61.5793 30.6704,55.246 32,47.5C 32.7648,44.8041 33.9315,42.3041 35.5,40C 34.552,39.5172 33.552,39.3505 32.5,39.5C 32.5,38.5 32.5,37.5 32.5,36.5C 35.1873,36.3359 37.854,36.5026 40.5,37C 41.4438,39.7191 41.7771,42.5525 41.5,45.5C 40.5,45.5 39.5,45.5 38.5,45.5C 38.6567,44.1266 38.49,42.7932 38,41.5C 32.7924,50.3786 33.6257,58.712 40.5,66.5C 40.0302,67.463 39.3635,67.463 38.5,66.5 Z"/></g>
<g><path style="opacity:1" fill="#80827d" d="M 49.5,37.5 C 51.604,37.2011 53.604,37.5344 55.5,38.5C 52.1603,39.4989 48.8269,39.9989 45.5,40C 46.8584,39.0656 48.1917,38.2323 49.5,37.5 Z"/></g>
<g><path style="opacity:0.902" fill="#fefffe" d="M 88.5,43.5 C 89.2506,42.4265 90.2506,42.2599 91.5,43C 90.552,43.4828 89.552,43.6495 88.5,43.5 Z"/></g>
<g><path style="opacity:1" fill="#6f6561" d="M 38.5,49.5 C 39.6368,52.3205 40.1368,55.3205 40,58.5C 38.7114,55.6492 38.2114,52.6492 38.5,49.5 Z"/></g>
<g><path style="opacity:1" fill="#76716d" d="M 65.5,51.5 C 66.4972,51.4701 67.1639,51.9701 67.5,53C 66.6429,57.2212 64.6429,60.7212 61.5,63.5C 61.1667,63.3333 60.8333,63.1667 60.5,63C 63.9493,59.9354 65.616,56.1021 65.5,51.5 Z"/></g>
<g><path style="opacity:1" fill="#6f6763" d="M 42.5,62.5 C 44.0699,61.4407 45.4032,61.9407 46.5,64C 44.9343,64.2997 43.601,63.7997 42.5,62.5 Z"/></g>
<g><path style="opacity:1" fill="#f7f5e8" d="M 38.5,66.5 C 39.0507,69.2668 40.3841,71.6001 42.5,73.5C 42.0233,74.4776 41.3567,75.3109 40.5,76C 38.6183,76.1981 36.9516,76.6981 35.5,77.5C 33.3591,77.1121 31.3591,77.1121 29.5,77.5C 26.3586,76.6787 23.0252,76.1787 19.5,76C 18.4464,74.6124 18.2797,73.1124 19,71.5C 23.1604,69.8971 26.8271,67.5638 30,64.5C 31.6255,65.2887 33.1255,66.2887 34.5,67.5C 35.7362,66.7542 37.0695,66.4208 38.5,66.5 Z"/></g>
<g><path style="opacity:1" fill="#5e463c" d="M 45.5,72.5 C 44.4265,71.7494 44.2599,70.7494 45,69.5C 47.3361,66.7514 50.1694,65.2514 53.5,65C 54.5196,66.5557 55.853,67.7224 57.5,68.5C 64.6103,66.552 68.777,61.8853 70,54.5C 72.7997,52.8821 74.2997,53.7155 74.5,57C 71.5705,67.766 64.5705,73.5993 53.5,74.5C 52.6771,78.919 50.5105,79.5856 47,76.5C 46.2086,75.255 45.7086,73.9217 45.5,72.5 Z"/></g>
<g><path style="opacity:1" fill="#e9bd54" d="M 45.5,72.5 C 46.7266,68.2383 49.3932,66.5717 53.5,67.5C 52.91,68.7989 51.91,69.6322 50.5,70C 56.0911,70.9145 61.0911,69.5812 65.5,66C 68.1145,62.9381 69.7812,59.4381 70.5,55.5C 71.5,55.5 72.5,55.5 73.5,55.5C 70.4793,67.347 62.8126,73.5136 50.5,74C 51.731,75.1827 51.731,76.3493 50.5,77.5C 49.0546,75.6064 47.3879,73.9397 45.5,72.5 Z"/></g>
</svg>
