<?xml version="1.0" encoding="UTF-8"?>
<!DOCTYPE svg PUBLIC "-//W3C//DTD SVG 1.1//EN" "http://www.w3.org/Graphics/SVG/1.1/DTD/svg11.dtd">
<svg xmlns="http://www.w3.org/2000/svg" version="1.1" width="100px" height="100px" style="shape-rendering:geometricPrecision; text-rendering:geometricPrecision; image-rendering:optimizeQuality; fill-rule:evenodd; clip-rule:evenodd" xmlns:xlink="http://www.w3.org/1999/xlink">
<g><path style="opacity:0.969" fill="#c8ece6" d="M 33.5,27.5 C 32.375,28.6522 32.375,29.6522 33.5,30.5C 33.7373,31.791 33.404,32.791 32.5,33.5C 32.38,32.4138 31.7133,31.7472 30.5,31.5C 28.1291,32.3469 26.1291,33.6802 24.5,35.5C 21.8661,37.54 21.8661,39.7067 24.5,42C 28.3575,42.8099 32.0242,42.6433 35.5,41.5C 35.8333,41.5 36.1667,41.5 36.5,41.5C 34.1446,43.1015 31.6446,44.7681 29,46.5C 26.3989,51.5018 27.5656,55.3351 32.5,58C 37.8229,58.4994 43.1563,58.666 48.5,58.5C 48.1872,62.0419 48.5206,65.3752 49.5,68.5C 50.1894,69.7736 51.0228,69.7736 52,68.5C 52.4986,64.8484 52.6653,61.1817 52.5,57.5C 55.7131,57.19 58.7131,57.5233 61.5,58.5C 56.9499,59.6861 55.6166,62.3528 57.5,66.5C 57.5774,67.7498 58.244,68.5831 59.5,69C 63.6888,69.8119 67.6888,69.6453 71.5,68.5C 72.1667,68.5 72.8333,68.5 73.5,68.5C 78.1014,69.9 82.768,69.7334 87.5,68C 90.3898,64.8899 90.0565,62.3899 86.5,60.5C 85.8014,55.972 83.1348,53.8054 78.5,54C 79.5914,51.9361 79.7581,49.7695 79,47.5C 75.7035,43.7191 72.5368,39.8858 69.5,36C 66.9528,35.3405 64.4528,35.5071 62,36.5C 60.4772,34.6461 58.6438,33.1461 56.5,32C 52.2672,31.9255 48.2672,31.0921 44.5,29.5C 43.5836,29.5427 42.9169,29.8761 42.5,30.5C 40.8333,29.5 39.5,28.1667 38.5,26.5C 42.3159,17.9131 48.9826,13.2464 58.5,12.5C 64.3567,14.4252 70.3567,15.7586 76.5,16.5C 75.8333,17.1667 75.1667,17.8333 74.5,18.5C 75.8333,19.1667 77.1667,19.8333 78.5,20.5C 77.624,21.2508 76.624,21.7508 75.5,22C 77.7825,25.5118 79.2825,29.3451 80,33.5C 88.9068,37.5768 92.0735,44.4101 89.5,54C 90.6983,57.2627 91.6983,60.596 92.5,64C 91.3539,72.8088 86.5205,76.3088 78,74.5C 72.0275,81.2479 65.1942,82.2479 57.5,77.5C 47.3301,86.7769 37.1634,86.7769 27,77.5C 23.7975,73.3921 22.2975,68.7255 22.5,63.5C 13.4764,63.3085 8.97639,58.6418 9,49.5C 8.5,48.3333 7.66667,47.5 6.5,47C 10.215,44.3085 14.215,41.9752 18.5,40C 20.9385,32.7258 25.9385,28.5591 33.5,27.5 Z"/></g>
<g><path style="opacity:1" fill="#f6f4e7" d="M 42.5,30.5 C 44.5138,30.3915 46.1805,31.0582 47.5,32.5C 45.6878,34.4605 44.6878,36.7939 44.5,39.5C 41.4867,39.1072 38.8201,39.7739 36.5,41.5C 36.1667,41.5 35.8333,41.5 35.5,41.5C 32.1501,41.665 28.8168,41.4983 25.5,41C 23.1695,39.5125 22.8362,37.6791 24.5,35.5C 26.9288,35.415 28.9288,34.415 30.5,32.5C 31.1835,32.8627 31.8501,33.1961 32.5,33.5C 33.404,32.791 33.7373,31.791 33.5,30.5C 36.6997,27.5914 39.1997,28.2581 41,32.5C 41.7172,31.9558 42.2172,31.2891 42.5,30.5 Z"/></g>
<g><path style="opacity:1" fill="#6c5b57" d="M 38.5,26.5 C 39.5,28.1667 40.8333,29.5 42.5,30.5C 42.2172,31.2891 41.7172,31.9558 41,32.5C 39.1997,28.2581 36.6997,27.5914 33.5,30.5C 32.375,29.6522 32.375,28.6522 33.5,27.5C 35.0418,26.6993 36.7085,26.366 38.5,26.5 Z"/></g>
<g><path style="opacity:1" fill="#705e5a" d="M 32.5,33.5 C 31.8501,33.1961 31.1835,32.8627 30.5,32.5C 28.9288,34.415 26.9288,35.415 24.5,35.5C 26.1291,33.6802 28.1291,32.3469 30.5,31.5C 31.7133,31.7472 32.38,32.4138 32.5,33.5 Z"/></g>
<g><path style="opacity:1" fill="#75c5cc" d="M 49.5,32.5 C 55.3065,31.5656 58.9731,33.899 60.5,39.5C 66.9974,35.6287 71.1641,37.2954 73,44.5C 77.2184,46.5631 78.5518,49.8964 77,54.5C 76.6174,53.944 76.1174,53.6107 75.5,53.5C 73.9894,51.5589 71.9894,51.0589 69.5,52C 68.1772,52.8159 67.5106,53.9826 67.5,55.5C 65.2895,56.1228 63.2895,57.1228 61.5,58.5C 58.7131,57.5233 55.7131,57.19 52.5,57.5C 52.3398,55.8008 52.5065,54.1341 53,52.5C 56.101,56.7577 57.7677,56.4244 58,51.5C 56.1667,49.6667 54.3333,47.8333 52.5,46C 50.9343,45.235 49.6009,45.4017 48.5,46.5C 46.8333,47.5 45.5,48.8333 44.5,50.5C 41.2985,51.8395 40.9652,53.5061 43.5,55.5C 44.5223,55.1445 45.189,54.4778 45.5,53.5C 46.4584,53.0472 47.2917,52.3805 48,51.5C 48.4955,53.4727 48.6621,55.4727 48.5,57.5C 43.4889,57.6659 38.4889,57.4993 33.5,57C 30.5583,56.0603 29.2249,54.0603 29.5,51C 29.3536,48.9658 30.0203,47.2991 31.5,46C 34.8383,45.3347 37.505,43.6681 39.5,41C 41.235,40.3486 42.9017,40.5153 44.5,41.5C 45.4017,38.0259 47.0683,35.0259 49.5,32.5 Z"/></g>
<g><path style="opacity:1" fill="#5d514f" d="M 42.5,30.5 C 42.9169,29.8761 43.5836,29.5427 44.5,29.5C 48.2672,31.0921 52.2672,31.9255 56.5,32C 58.6438,33.1461 60.4772,34.6461 62,36.5C 64.4528,35.5071 66.9528,35.3405 69.5,36C 72.5368,39.8858 75.7035,43.7191 79,47.5C 79.7581,49.7695 79.5914,51.9361 78.5,54C 83.1348,53.8054 85.8014,55.972 86.5,60.5C 84.9124,59.3587 83.5791,57.8587 82.5,56C 80.765,55.3486 79.0983,55.5153 77.5,56.5C 76.0815,55.9953 75.4148,54.9953 75.5,53.5C 76.1174,53.6107 76.6174,53.944 77,54.5C 78.5518,49.8964 77.2184,46.5631 73,44.5C 71.1641,37.2954 66.9974,35.6287 60.5,39.5C 58.9731,33.899 55.3065,31.5656 49.5,32.5C 48.8333,32.5 48.1667,32.5 47.5,32.5C 46.1805,31.0582 44.5138,30.3915 42.5,30.5 Z"/></g>
<g><path style="opacity:1" fill="#503c3a" d="M 47.5,32.5 C 48.1667,32.5 48.8333,32.5 49.5,32.5C 47.0683,35.0259 45.4017,38.0259 44.5,41.5C 42.9017,40.5153 41.235,40.3486 39.5,41C 37.505,43.6681 34.8383,45.3347 31.5,46C 30.0203,47.2991 29.3536,48.9658 29.5,51C 29.2249,54.0603 30.5583,56.0603 33.5,57C 38.4889,57.4993 43.4889,57.6659 48.5,57.5C 48.6621,55.4727 48.4955,53.4727 48,51.5C 47.2917,52.3805 46.4584,53.0472 45.5,53.5C 45.894,51.2901 47.2273,49.9568 49.5,49.5C 49.5,55.5 49.5,61.5 49.5,67.5C 49.5,67.8333 49.5,68.1667 49.5,68.5C 48.5206,65.3752 48.1872,62.0419 48.5,58.5C 43.1563,58.666 37.8229,58.4994 32.5,58C 27.5656,55.3351 26.3989,51.5018 29,46.5C 31.6446,44.7681 34.1446,43.1015 36.5,41.5C 38.8201,39.7739 41.4867,39.1072 44.5,39.5C 44.6878,36.7939 45.6878,34.4605 47.5,32.5 Z"/></g>
<g><path style="opacity:1" fill="#64514e" d="M 24.5,35.5 C 22.8362,37.6791 23.1695,39.5125 25.5,41C 28.8168,41.4983 32.1501,41.665 35.5,41.5C 32.0242,42.6433 28.3575,42.8099 24.5,42C 21.8661,39.7067 21.8661,37.54 24.5,35.5 Z"/></g>
<g><path style="opacity:1" fill="#eab81e" d="M 49.5,46.5 C 52.5628,48.0512 55.2295,50.2179 57.5,53C 54.9067,52.4535 52.7401,50.9535 51,48.5C 50.8279,55.0133 50.3279,61.3466 49.5,67.5C 49.5,61.5 49.5,55.5 49.5,49.5C 48.1667,48.5 48.1667,47.5 49.5,46.5 Z"/></g>
<g><path style="opacity:1" fill="#a38940" d="M 48.5,46.5 C 48.8333,46.5 49.1667,46.5 49.5,46.5C 48.1667,47.5 48.1667,48.5 49.5,49.5C 47.2273,49.9568 45.894,51.2901 45.5,53.5C 44.7611,53.631 44.0944,53.4643 43.5,53C 44.2524,52.3292 44.5858,51.4959 44.5,50.5C 45.5,48.8333 46.8333,47.5 48.5,46.5 Z"/></g>
<g><path style="opacity:1" fill="#6e6f63" d="M 48.5,46.5 C 49.6009,45.4017 50.9343,45.235 52.5,46C 54.3333,47.8333 56.1667,49.6667 58,51.5C 57.7677,56.4244 56.101,56.7577 53,52.5C 52.5065,54.1341 52.3398,55.8008 52.5,57.5C 52.6653,61.1817 52.4986,64.8484 52,68.5C 51.0228,69.7736 50.1894,69.7736 49.5,68.5C 49.5,68.1667 49.5,67.8333 49.5,67.5C 50.3279,61.3466 50.8279,55.0133 51,48.5C 52.7401,50.9535 54.9067,52.4535 57.5,53C 55.2295,50.2179 52.5628,48.0512 49.5,46.5C 49.1667,46.5 48.8333,46.5 48.5,46.5 Z"/></g>
<g><path style="opacity:1" fill="#706663" d="M 75.5,53.5 C 74.3052,53.3225 73.1385,52.9891 72,52.5C 70.3566,53.3146 68.8566,54.3146 67.5,55.5C 67.5106,53.9826 68.1772,52.8159 69.5,52C 71.9894,51.0589 73.9894,51.5589 75.5,53.5 Z"/></g>
<g><path style="opacity:1" fill="#666658" d="M 44.5,50.5 C 44.5858,51.4959 44.2524,52.3292 43.5,53C 44.0944,53.4643 44.7611,53.631 45.5,53.5C 45.189,54.4778 44.5223,55.1445 43.5,55.5C 40.9652,53.5061 41.2985,51.8395 44.5,50.5 Z"/></g>
<g><path style="opacity:1" fill="#f9f7eb" d="M 75.5,53.5 C 75.4148,54.9953 76.0815,55.9953 77.5,56.5C 79.0983,55.5153 80.765,55.3486 82.5,56C 83.5791,57.8587 84.9124,59.3587 86.5,60.5C 87.768,62.6702 87.768,64.8368 86.5,67C 81.9805,67.1753 77.6472,67.6753 73.5,68.5C 72.8333,68.5 72.1667,68.5 71.5,68.5C 66.9362,67.7838 62.2695,67.1171 57.5,66.5C 57.3433,65.1266 57.51,63.7932 58,62.5C 60.6659,61.1075 63.1659,59.4408 65.5,57.5C 67.2141,58.6085 67.8808,57.9418 67.5,55.5C 68.8566,54.3146 70.3566,53.3146 72,52.5C 73.1385,52.9891 74.3052,53.3225 75.5,53.5 Z"/></g>
<g><path style="opacity:1" fill="#6f5c58" d="M 67.5,55.5 C 67.8808,57.9418 67.2141,58.6085 65.5,57.5C 63.1659,59.4408 60.6659,61.1075 58,62.5C 57.51,63.7932 57.3433,65.1266 57.5,66.5C 55.6166,62.3528 56.9499,59.6861 61.5,58.5C 63.2895,57.1228 65.2895,56.1228 67.5,55.5 Z"/></g>
<g><path style="opacity:1" fill="#8c857f" d="M 57.5,66.5 C 62.2695,67.1171 66.9362,67.7838 71.5,68.5C 67.6888,69.6453 63.6888,69.8119 59.5,69C 58.244,68.5831 57.5774,67.7498 57.5,66.5 Z"/></g>
<g><path style="opacity:1" fill="#88817b" d="M 86.5,60.5 C 90.0565,62.3899 90.3898,64.8899 87.5,68C 82.768,69.7334 78.1014,69.9 73.5,68.5C 77.6472,67.6753 81.9805,67.1753 86.5,67C 87.768,64.8368 87.768,62.6702 86.5,60.5 Z"/></g>
</svg>
