<?xml version="1.0" encoding="UTF-8"?>
<!DOCTYPE svg PUBLIC "-//W3C//DTD SVG 1.1//EN" "http://www.w3.org/Graphics/SVG/1.1/DTD/svg11.dtd">
<svg xmlns="http://www.w3.org/2000/svg" version="1.1" width="100px" height="100px" style="shape-rendering:geometricPrecision; text-rendering:geometricPrecision; image-rendering:optimizeQuality; fill-rule:evenodd; clip-rule:evenodd" xmlns:xlink="http://www.w3.org/1999/xlink">
<g><path style="opacity:0.976" fill="#c6e9e2" d="M 90.5,66.5 C 89.0335,63.7417 88.3668,64.075 88.5,67.5C 88.3843,63.725 86.3843,62.0583 82.5,62.5C 81.5,61.8333 80.5,61.1667 79.5,60.5C 78.8658,59.0532 77.6991,58.3866 76,58.5C 74.3009,58.3866 73.1342,59.0532 72.5,60.5C 68.9723,62.5498 65.639,64.8832 62.5,67.5C 60.5613,68.0138 59.5613,69.3472 59.5,71.5C 59.5613,73.6528 60.5613,74.9862 62.5,75.5C 68.358,75.1778 74.0247,75.5111 79.5,76.5C 78.1266,76.3433 76.7932,76.51 75.5,77C 71.3828,81.2589 66.3828,82.5922 60.5,81C 59.0692,80.5348 57.9025,79.7014 57,78.5C 50.8942,85.0917 43.3942,87.2583 34.5,85C 25.592,81.5827 20.592,75.0827 19.5,65.5C 10.9461,64.138 7.27939,59.3046 8.5,51C 7.5,50.6667 6.5,50.3333 5.5,50C 8.78686,45.9179 12.7869,42.7512 17.5,40.5C 19.717,41.3686 22.0504,41.702 24.5,41.5C 26.6409,41.1121 28.6409,41.1121 30.5,41.5C 33.8499,41.665 37.1832,41.4983 40.5,41C 42.3249,39.5341 42.8249,37.7008 42,35.5C 38.946,33.2647 36.1127,30.9314 33.5,28.5C 34.8221,28.67 35.9887,28.3366 37,27.5C 44.5581,12.9277 55.7248,9.42771 70.5,17C 75.7478,21.6619 78.7478,27.4953 79.5,34.5C 88.0052,39.1901 90.6719,46.1901 87.5,55.5C 90.0571,58.6993 91.0571,62.366 90.5,66.5 Z"/></g>
<g><path style="opacity:0.957" fill="#563d3a" d="M 33.5,28.5 C 36.1127,30.9314 38.946,33.2647 42,35.5C 42.8249,37.7008 42.3249,39.5341 40.5,41C 37.1832,41.4983 33.8499,41.665 30.5,41.5C 33.3054,40.6805 36.3054,40.1805 39.5,40C 40.3567,39.3109 41.0233,38.4776 41.5,37.5C 37.8501,34.2346 34.0168,31.2346 30,28.5C 28.395,29.1007 27.0616,30.1007 26,31.5C 24.6124,30.4464 23.1124,30.2797 21.5,31C 20.842,32.9045 19.6753,34.4045 18,35.5C 17.2195,36.9437 17.3861,38.277 18.5,39.5C 20.6568,40.0505 22.6568,40.7171 24.5,41.5C 22.0504,41.702 19.717,41.3686 17.5,40.5C 16.3775,38.7116 16.2109,36.7116 17,34.5C 18.6753,33.4045 19.842,31.9045 20.5,30C 23.8359,29.5371 27.0025,28.7037 30,27.5C 31.3847,27.5143 32.5514,27.8476 33.5,28.5 Z"/></g>
<g><path style="opacity:1" fill="#f7f5e8" d="M 30.5,41.5 C 28.6409,41.1121 26.6409,41.1121 24.5,41.5C 22.6568,40.7171 20.6568,40.0505 18.5,39.5C 17.3861,38.277 17.2195,36.9437 18,35.5C 19.6753,34.4045 20.842,32.9045 21.5,31C 23.1124,30.2797 24.6124,30.4464 26,31.5C 27.0616,30.1007 28.395,29.1007 30,28.5C 34.0168,31.2346 37.8501,34.2346 41.5,37.5C 41.0233,38.4776 40.3567,39.3109 39.5,40C 36.3054,40.1805 33.3054,40.6805 30.5,41.5 Z"/></g>
<g><path style="opacity:1" fill="#5b3c32" d="M 45.5,42.5 C 49.3113,40.8821 52.8113,41.5487 56,44.5C 60.6239,40.6398 63.9572,36.6398 66,32.5C 70.1922,27.0973 74.0256,27.4306 77.5,33.5C 76.3589,35.8079 74.6922,37.6413 72.5,39C 68.3602,41.0428 64.3602,44.3761 60.5,49C 65.8263,56.7335 63.993,61.9002 55,64.5C 54.1084,78.1413 47.6084,81.6413 35.5,75C 28.2704,69.7386 25.7704,62.9053 28,54.5C 31.4116,51.1211 35.5783,49.6211 40.5,50C 42.02,48.1153 43.02,45.9486 43.5,43.5C 43.9569,42.7025 44.6236,42.3691 45.5,42.5 Z"/></g>
<g><path style="opacity:1" fill="#f9961f" d="M 45.5,42.5 C 56.0952,42.6701 57.0952,45.6701 48.5,51.5C 44.4169,54.7948 44.9169,57.4615 50,59.5C 51.6424,59.0222 52.8091,58.0222 53.5,56.5C 55.1182,54.215 57.1182,52.215 59.5,50.5C 62.1522,52.5917 62.9855,55.2583 62,58.5C 59.5905,60.5989 56.9239,62.2656 54,63.5C 54.8241,73.6819 50.3241,77.8485 40.5,76C 31.3068,72.1092 27.4735,65.2759 29,55.5C 32.4116,52.1211 36.5783,50.6211 41.5,51C 43.0556,48.2936 44.389,45.4602 45.5,42.5 Z"/></g>
<g><path style="opacity:1" fill="#b07246" d="M 53.5,53.5 C 53.5,52.1667 52.8333,51.5 51.5,51.5C 55.7967,46.7021 60.2967,42.0355 65,37.5C 65.8333,38.3333 66.6667,39.1667 67.5,40C 62.9645,44.7033 58.2979,49.2033 53.5,53.5 Z"/></g>
<g><path style="opacity:1" fill="#e98b20" d="M 70.5,29.5 C 72.7288,30.0553 74.3954,31.3886 75.5,33.5C 73.8509,35.6499 72.0176,37.6499 70,39.5C 68.5,38 67,36.5 65.5,35C 67.3734,33.2962 69.0401,31.4628 70.5,29.5 Z"/></g>
<g><path style="opacity:1" fill="#665a55" d="M 48.5,51.5 C 49.5,51.5 50.5,51.5 51.5,51.5C 52.8333,51.5 53.5,52.1667 53.5,53.5C 53.5,54.5 53.5,55.5 53.5,56.5C 52.8091,58.0222 51.6424,59.0222 50,59.5C 44.9169,57.4615 44.4169,54.7948 48.5,51.5 Z"/></g>
<g><path style="opacity:1" fill="#685851" d="M 39.5,55.5 C 43.067,57.5566 46.2337,60.2232 49,63.5C 49.1667,66 48,67.1667 45.5,67C 43.3333,64.1667 40.8333,61.6667 38,59.5C 37.7003,57.9343 38.2003,56.601 39.5,55.5 Z"/></g>
<g><path style="opacity:1" fill="#776661" d="M 79.5,60.5 C 77.1667,59.1667 74.8333,59.1667 72.5,60.5C 73.1342,59.0532 74.3009,58.3866 76,58.5C 77.6991,58.3866 78.8658,59.0532 79.5,60.5 Z"/></g>
<g><path style="opacity:1" fill="#f7f6e9" d="M 79.5,60.5 C 79.7086,61.9217 80.2086,63.255 81,64.5C 81.7172,63.9558 82.2172,63.2891 82.5,62.5C 86.3843,62.0583 88.3843,63.725 88.5,67.5C 91.9549,68.1284 93.1215,70.1284 92,73.5C 88.9491,75.019 85.7824,76.019 82.5,76.5C 81.5,76.5 80.5,76.5 79.5,76.5C 74.0247,75.5111 68.358,75.1778 62.5,75.5C 61.1667,72.8333 61.1667,70.1667 62.5,67.5C 64.973,67.2009 67.1397,66.2009 69,64.5C 69.772,64.6448 70.4387,64.9781 71,65.5C 71.6077,63.8455 72.1077,62.1789 72.5,60.5C 74.8333,59.1667 77.1667,59.1667 79.5,60.5 Z"/></g>
<g><path style="opacity:1" fill="#6f5b57" d="M 79.5,60.5 C 80.5,61.1667 81.5,61.8333 82.5,62.5C 82.2172,63.2891 81.7172,63.9558 81,64.5C 80.2086,63.255 79.7086,61.9217 79.5,60.5 Z"/></g>
<g><path style="opacity:1" fill="#73625d" d="M 72.5,60.5 C 72.1077,62.1789 71.6077,63.8455 71,65.5C 70.4387,64.9781 69.772,64.6448 69,64.5C 67.1397,66.2009 64.973,67.2009 62.5,67.5C 65.639,64.8832 68.9723,62.5498 72.5,60.5 Z"/></g>
<g><path style="opacity:0.957" fill="#4f3630" d="M 90.5,66.5 C 95.1378,69.2576 95.4711,72.4242 91.5,76C 88.5184,76.498 85.5184,76.6646 82.5,76.5C 85.7824,76.019 88.9491,75.019 92,73.5C 93.1215,70.1284 91.9549,68.1284 88.5,67.5C 88.3668,64.075 89.0335,63.7417 90.5,66.5 Z"/></g>
<g><path style="opacity:1" fill="#a79a92" d="M 71.5,66.5 C 72.0431,66.56 72.3764,66.8933 72.5,67.5C 70.3638,69.1961 68.0305,70.0294 65.5,70C 67.4319,68.5415 69.4319,67.3748 71.5,66.5 Z"/></g>
<g><path style="opacity:1" fill="#948781" d="M 62.5,67.5 C 61.1667,70.1667 61.1667,72.8333 62.5,75.5C 60.5613,74.9862 59.5613,73.6528 59.5,71.5C 59.5613,69.3472 60.5613,68.0138 62.5,67.5 Z"/></g>
</svg>
