<?xml version="1.0" encoding="UTF-8"?>
<!DOCTYPE svg PUBLIC "-//W3C//DTD SVG 1.1//EN" "http://www.w3.org/Graphics/SVG/1.1/DTD/svg11.dtd">
<svg xmlns="http://www.w3.org/2000/svg" version="1.1" width="30px" height="30px" style="shape-rendering:geometricPrecision; text-rendering:geometricPrecision; image-rendering:optimizeQuality; fill-rule:evenodd; clip-rule:evenodd" xmlns:xlink="http://www.w3.org/1999/xlink">
<g><path style="opacity:0.951" fill="#000000" d="M 12.5,1.5 C 15.8411,1.65588 18.6745,2.98921 21,5.5C 22.0113,4.66337 23.1779,4.33003 24.5,4.5C 24.3205,6.95412 24.9872,9.12079 26.5,11C 24.6851,15.6341 24.0184,20.4674 24.5,25.5C 17.8333,25.5 11.1667,25.5 4.5,25.5C 4.98156,20.4674 4.3149,15.6341 2.5,11C 5.66415,7.66954 8.99748,4.50288 12.5,1.5 Z M 17.5,14.5 C 18.8333,14.5 20.1667,14.5 21.5,14.5C 21.5,17.1667 21.5,19.8333 21.5,22.5C 20.1667,22.5 18.8333,22.5 17.5,22.5C 17.5,19.8333 17.5,17.1667 17.5,14.5 Z"/></g>
</svg>
