<?xml version="1.0" encoding="UTF-8"?>
<!DOCTYPE svg PUBLIC "-//W3C//DTD SVG 1.1//EN" "http://www.w3.org/Graphics/SVG/1.1/DTD/svg11.dtd">
<svg xmlns="http://www.w3.org/2000/svg" version="1.1" width="100px" height="100px" style="shape-rendering:geometricPrecision; text-rendering:geometricPrecision; image-rendering:optimizeQuality; fill-rule:evenodd; clip-rule:evenodd" xmlns:xlink="http://www.w3.org/1999/xlink">
<g><path style="opacity:0.961" fill="#f0bb19" d="M 79.5,10.5 C 86.1584,9.34448 88.1584,11.8445 85.5,18C 78.7496,19.4689 76.7496,16.9689 79.5,10.5 Z"/></g>
<g><path style="opacity:0.765" fill="#f0bb17" d="M 75.5,11.5 C 77.337,11.6395 77.6704,12.3061 76.5,13.5C 75.7025,13.0431 75.3691,12.3764 75.5,11.5 Z"/></g>
<g><path style="opacity:0.98" fill="#f9dda0" d="M 78.5,73.5 C 77.8333,73.5 77.5,73.8333 77.5,74.5C 67.4123,85.0265 55.079,88.8598 40.5,86C 29.4791,83.0176 21.4791,76.5176 16.5,66.5C 19.9157,61.513 18.5824,58.8463 12.5,58.5C 10.8095,26.0234 26.1429,10.8568 58.5,13C 80.274,20.3598 89.4407,35.5265 86,58.5C 84.541,64.0848 82.041,69.0848 78.5,73.5 Z"/></g>
<g><path style="opacity:0.878" fill="#ed3d53" d="M 84.5,21.5 C 85.8333,21.5 87.1667,21.5 88.5,21.5C 88.5,22.8333 88.5,24.1667 88.5,25.5C 87.1667,25.5 85.8333,25.5 84.5,25.5C 84.5,24.1667 84.5,22.8333 84.5,21.5 Z"/></g>
<g><path style="opacity:0.878" fill="#ed3d53" d="M 10.5,26.5 C 11.8333,26.5 13.1667,26.5 14.5,26.5C 14.5,27.8333 14.5,29.1667 14.5,30.5C 13.1667,30.5 11.8333,30.5 10.5,30.5C 10.5,29.1667 10.5,27.8333 10.5,26.5 Z"/></g>
<g><path style="opacity:1" fill="#4f3732" d="M 34.5,68.5 C 33.3396,55.3397 33.173,42.0064 34,28.5C 37.4085,27.3781 40.9085,27.2114 44.5,28C 45.6559,41.7583 45.8226,55.5917 45,69.5C 41.9269,70.6168 38.7603,70.7835 35.5,70C 34.944,69.6174 34.6107,69.1174 34.5,68.5 Z"/></g>
<g><path style="opacity:1" fill="#96bc91" d="M 34.5,68.5 C 34.3334,55.4957 34.5001,42.4957 35,29.5C 37.7372,28.3895 40.5706,28.2228 43.5,29C 44.6554,42.0914 44.822,55.258 44,68.5C 40.8689,69.7003 37.7023,69.7003 34.5,68.5 Z"/></g>
<g><path style="opacity:1" fill="#4f3732" d="M 54.5,68.5 C 53.3396,55.3397 53.173,42.0064 54,28.5C 57.4085,27.3781 60.9085,27.2114 64.5,28C 65.6559,41.7583 65.8226,55.5917 65,69.5C 61.9269,70.6168 58.7603,70.7835 55.5,70C 54.944,69.6174 54.6107,69.1174 54.5,68.5 Z"/></g>
<g><path style="opacity:1" fill="#95bc91" d="M 54.5,68.5 C 54.3334,55.4957 54.5001,42.4957 55,29.5C 57.7372,28.3895 60.5706,28.2228 63.5,29C 64.6554,42.0914 64.822,55.258 64,68.5C 60.8689,69.7003 57.7023,69.7003 54.5,68.5 Z"/></g>
<g><path style="opacity:1" fill="#fefbf5" d="M 16.5,50.5 C 20.1612,50.3501 21.1612,51.8501 19.5,55C 15.7071,55.4866 14.7071,53.9866 16.5,50.5 Z"/></g>
<g><path style="opacity:0.957" fill="#facd5a" d="M 12.5,58.5 C 18.5824,58.8463 19.9157,61.513 16.5,66.5C 10.9334,67.2468 9.10005,64.9134 11,59.5C 11.3826,58.944 11.8826,58.6107 12.5,58.5 Z"/></g>
<g><path style="opacity:1" fill="#f3c439" d="M 19.5,65.5 C 21.337,65.6395 21.6704,66.3061 20.5,67.5C 19.7025,67.0431 19.3691,66.3764 19.5,65.5 Z"/></g>
<g><path style="opacity:0.835" fill="#facf5a" d="M 77.5,74.5 C 77.5,73.8333 77.8333,73.5 78.5,73.5C 79.8333,73.5 81.1667,73.5 82.5,73.5C 82.5,74.8333 82.5,76.1667 82.5,77.5C 81.1667,77.5 79.8333,77.5 78.5,77.5C 78.7373,76.209 78.404,75.209 77.5,74.5 Z"/></g>
<g><path style="opacity:0.878" fill="#ed3d53" d="M 22.5,84.5 C 23.8333,84.5 25.1667,84.5 26.5,84.5C 26.5,85.8333 26.5,87.1667 26.5,88.5C 25.1667,88.5 23.8333,88.5 22.5,88.5C 22.5,87.1667 22.5,85.8333 22.5,84.5 Z"/></g>
</svg>
