<?xml version="1.0" encoding="UTF-8"?>
<!DOCTYPE svg PUBLIC "-//W3C//DTD SVG 1.1//EN" "http://www.w3.org/Graphics/SVG/1.1/DTD/svg11.dtd">
<svg xmlns="http://www.w3.org/2000/svg" version="1.1" width="100px" height="100px" style="shape-rendering:geometricPrecision; text-rendering:geometricPrecision; image-rendering:optimizeQuality; fill-rule:evenodd; clip-rule:evenodd" xmlns:xlink="http://www.w3.org/1999/xlink">
<g><path style="opacity:0.976" fill="#c7ebe4" d="M 72.5,19.5 C 70.302,19.1201 68.6354,19.7868 67.5,21.5C 66.5,22.1667 65.5,22.8333 64.5,23.5C 63.1667,23.5 61.8333,23.5 60.5,23.5C 58.478,24.507 57.1447,26.1737 56.5,28.5C 53.7207,29.8889 50.7207,30.7222 47.5,31C 41.4451,33.9257 39.4451,38.4257 41.5,44.5C 42.8138,49.1402 44.1471,53.8069 45.5,58.5C 45.101,64.5913 42.4343,65.9246 37.5,62.5C 39.5958,61.4081 40.9292,59.7414 41.5,57.5C 40.2331,55.0565 38.7331,52.7231 37,50.5C 37.0423,41.3765 32.5423,36.7098 23.5,36.5C 22.0936,41.9313 24.0936,44.2647 29.5,43.5C 29.33,44.8221 29.6634,45.9887 30.5,47C 28.8333,47.3333 27.1667,47.6667 25.5,48C 23.3749,50.7106 20.7083,52.7106 17.5,54C 14.8333,56.3333 14.8333,58.6667 17.5,61C 20.8168,61.4983 24.1501,61.665 27.5,61.5C 28.5,60.1667 29.5,60.1667 30.5,61.5C 30.9321,62.7095 31.5987,63.7095 32.5,64.5C 34.655,69.7475 38.3217,71.4142 43.5,69.5C 48.1667,69.5 50.5,67.1667 50.5,62.5C 51.6341,60.0336 51.8007,57.367 51,54.5C 49.2189,50.6047 47.7189,46.6047 46.5,42.5C 46.9766,40.4035 47.6433,38.4035 48.5,36.5C 50.5648,36.5172 52.5648,36.8505 54.5,37.5C 55.0857,43.6336 55.7524,49.6336 56.5,55.5C 56.2591,58.0336 57.2591,59.7002 59.5,60.5C 60.0577,61.7899 61.0577,62.6232 62.5,63C 65.1667,63.3333 67.8333,63.6667 70.5,64C 67.864,65.4098 67.1974,67.2431 68.5,69.5C 69.2039,71.3442 70.5372,71.8442 72.5,71C 76.0158,67.6514 79.3492,64.1514 82.5,60.5C 79.1356,56.3014 75.3023,52.6347 71,49.5C 66.532,51.6046 66.3653,54.1046 70.5,57C 67.3307,57.9782 64.4973,57.4782 62,55.5C 61.8104,49.5845 61.3104,43.7512 60.5,38C 62.0581,37.79 63.3915,37.29 64.5,36.5C 65.391,37.1098 66.391,37.4431 67.5,37.5C 73.1667,37.5 78.8333,37.5 84.5,37.5C 85.9477,39.5551 87.281,41.7218 88.5,44C 93.7937,44.8178 93.7937,45.3178 88.5,45.5C 88.7507,48.909 88.4173,52.2423 87.5,55.5C 90.8356,60.5243 91.3356,65.8577 89,71.5C 85.5884,74.8789 81.4217,76.3789 76.5,76C 70.6861,82.2645 64.1861,83.0978 57,78.5C 50.8942,85.0917 43.3942,87.2583 34.5,85C 30.8651,84.1836 27.8651,82.3502 25.5,79.5C 23.5767,78.6922 21.5767,78.1922 19.5,78C 20.8333,77.6667 22.1667,77.3333 23.5,77C 21.074,73.1988 20.074,69.0321 20.5,64.5C 15.4081,64.9073 11.5748,62.9073 9,58.5C 7.83609,53.2741 8.66943,48.4408 11.5,44C 13.2166,42.4412 15.2166,41.6079 17.5,41.5C 18.1696,35.6627 21.1696,31.496 26.5,29C 29.8333,28.6667 33.1667,28.3333 36.5,28C 42.0352,15.899 51.3686,11.2323 64.5,14C 67.7556,15.116 70.4223,16.9493 72.5,19.5 Z"/></g>
<g><path style="opacity:1" fill="#f7f5e9" d="M 67.5,37.5 C 66.391,37.4431 65.391,37.1098 64.5,36.5C 60.381,36.3542 57.381,34.3542 55.5,30.5C 55.8627,29.8165 56.1961,29.1499 56.5,28.5C 58.3904,28.2965 59.8904,28.9632 61,30.5C 61.1151,28.8932 60.6151,27.3932 59.5,26C 59.7432,25.0979 60.0766,24.2646 60.5,23.5C 61.8333,23.5 63.1667,23.5 64.5,23.5C 64.7828,24.2891 65.2828,24.9558 66,25.5C 66.7914,24.255 67.2914,22.9217 67.5,21.5C 72.3915,19.6951 75.2248,21.3618 76,26.5C 77.3876,25.4464 78.8876,25.2797 80.5,26C 83.1643,27.5953 85.1643,29.762 86.5,32.5C 86.4712,34.0293 85.8045,35.196 84.5,36C 78.6518,36.1728 72.9851,36.6728 67.5,37.5 Z"/></g>
<g><path style="opacity:1" fill="#6b5652" d="M 67.5,21.5 C 67.2914,22.9217 66.7914,24.255 66,25.5C 65.2828,24.9558 64.7828,24.2891 64.5,23.5C 65.5,22.8333 66.5,22.1667 67.5,21.5 Z"/></g>
<g><path style="opacity:1" fill="#9f9189" d="M 60.5,23.5 C 60.0766,24.2646 59.7432,25.0979 59.5,26C 60.6151,27.3932 61.1151,28.8932 61,30.5C 59.8904,28.9632 58.3904,28.2965 56.5,28.5C 57.1447,26.1737 58.478,24.507 60.5,23.5 Z"/></g>
<g><path style="opacity:1" fill="#a79991" d="M 74.5,27.5 C 77.0573,28.1878 79.3907,29.3545 81.5,31C 80.5,31.6667 79.5,31.6667 78.5,31C 76.6813,30.2597 75.3479,29.0931 74.5,27.5 Z"/></g>
<g><path style="opacity:0.973" fill="#4e3331" d="M 72.5,19.5 C 75.2974,19.9666 76.6308,21.6333 76.5,24.5C 80.6366,24.7047 84.1366,26.3714 87,29.5C 88.1657,32.9268 87.3324,35.5935 84.5,37.5C 78.8333,37.5 73.1667,37.5 67.5,37.5C 72.9851,36.6728 78.6518,36.1728 84.5,36C 85.8045,35.196 86.4712,34.0293 86.5,32.5C 85.1643,29.762 83.1643,27.5953 80.5,26C 78.8876,25.2797 77.3876,25.4464 76,26.5C 75.2248,21.3618 72.3915,19.6951 67.5,21.5C 68.6354,19.7868 70.302,19.1201 72.5,19.5 Z"/></g>
<g><path style="opacity:1" fill="#624b43" d="M 41.5,44.5 C 45.3332,49.8479 46.8332,55.8479 46,62.5C 45.4241,64.8516 43.9241,65.8516 41.5,65.5C 38.3389,64.9706 35.6723,63.6373 33.5,61.5C 34.9516,60.6981 36.6183,60.1981 38.5,60C 39.3567,59.3109 40.0233,58.4776 40.5,57.5C 38.7123,55.4235 37.0456,53.2568 35.5,51C 34.2161,50.3162 33.0495,50.4829 32,51.5C 30.9384,50.1007 29.605,49.1007 28,48.5C 23.9832,51.2346 20.1499,54.2346 16.5,57.5C 16.9767,58.4776 17.6433,59.3109 18.5,60C 21.6946,60.1805 24.6946,60.6805 27.5,61.5C 24.1501,61.665 20.8168,61.4983 17.5,61C 14.8333,58.6667 14.8333,56.3333 17.5,54C 20.7083,52.7106 23.3749,50.7106 25.5,48C 27.1667,47.6667 28.8333,47.3333 30.5,47C 29.6634,45.9887 29.33,44.8221 29.5,43.5C 24.0936,44.2647 22.0936,41.9313 23.5,36.5C 32.5423,36.7098 37.0423,41.3765 37,50.5C 38.7331,52.7231 40.2331,55.0565 41.5,57.5C 40.9292,59.7414 39.5958,61.4081 37.5,62.5C 42.4343,65.9246 45.101,64.5913 45.5,58.5C 44.1471,53.8069 42.8138,49.1402 41.5,44.5 Z"/></g>
<g><path style="opacity:1" fill="#c4951e" d="M 24.5,38.5 C 31.7853,38.4518 35.452,42.1185 35.5,49.5C 34.1667,49.5 32.8333,49.5 31.5,49.5C 32.3223,43.9921 29.9889,41.3254 24.5,41.5C 24.5,40.5 24.5,39.5 24.5,38.5 Z"/></g>
<g><path style="opacity:1" fill="#c2941e" d="M 73.5,57.5 C 74.8333,59.5 74.8333,61.5 73.5,63.5C 68.8488,62.8908 64.1821,61.8908 59.5,60.5C 58.7368,58.6316 57.7368,56.9649 56.5,55.5C 56.6661,49.8236 56.4994,44.1569 56,38.5C 55.6174,37.944 55.1174,37.6107 54.5,37.5C 53.8658,36.0532 52.6991,35.3866 51,35.5C 49.9302,35.528 49.0968,35.8614 48.5,36.5C 46.1163,37.4251 45.1163,39.2585 45.5,42C 46.2815,46.7319 47.7815,51.2319 50,55.5C 50.4966,57.8098 50.6633,60.1432 50.5,62.5C 49.4415,63.6002 48.6082,64.9336 48,66.5C 46.3484,67.3994 44.8484,68.3994 43.5,69.5C 38.9476,69.7229 35.2809,68.0563 32.5,64.5C 32.5,63.5 32.5,62.5 32.5,61.5C 32.8333,61.5 33.1667,61.5 33.5,61.5C 35.6723,63.6373 38.3389,64.9706 41.5,65.5C 43.9241,65.8516 45.4241,64.8516 46,62.5C 46.8332,55.8479 45.3332,49.8479 41.5,44.5C 41.3342,36.1677 45.3342,32.001 53.5,32C 56.7284,33.5629 58.8951,36.0629 60,39.5C 60.3333,45.1667 60.6667,50.8333 61,56.5C 62.9958,58.0591 65.3291,58.7258 68,58.5C 70.0326,58.4944 71.866,58.1611 73.5,57.5 Z"/></g>
<g><path style="opacity:1" fill="#5e473e" d="M 48.5,36.5 C 47.6433,38.4035 46.9766,40.4035 46.5,42.5C 47.7189,46.6047 49.2189,50.6047 51,54.5C 51.8007,57.367 51.6341,60.0336 50.5,62.5C 50.6633,60.1432 50.4966,57.8098 50,55.5C 47.7815,51.2319 46.2815,46.7319 45.5,42C 45.1163,39.2585 46.1163,37.4251 48.5,36.5 Z"/></g>
<g><path style="opacity:1" fill="#4c312d" d="M 54.5,37.5 C 55.1174,37.6107 55.6174,37.944 56,38.5C 56.4994,44.1569 56.6661,49.8236 56.5,55.5C 55.7524,49.6336 55.0857,43.6336 54.5,37.5 Z"/></g>
<g><path style="opacity:1" fill="#f8f7ea" d="M 33.5,61.5 C 33.1667,61.5 32.8333,61.5 32.5,61.5C 31.8333,60.1667 31.1667,60.1667 30.5,61.5C 29.5,60.1667 28.5,60.1667 27.5,61.5C 24.6946,60.6805 21.6946,60.1805 18.5,60C 17.6433,59.3109 16.9767,58.4776 16.5,57.5C 20.1499,54.2346 23.9832,51.2346 28,48.5C 29.605,49.1007 30.9384,50.1007 32,51.5C 33.0495,50.4829 34.2161,50.3162 35.5,51C 37.0456,53.2568 38.7123,55.4235 40.5,57.5C 40.0233,58.4776 39.3567,59.3109 38.5,60C 36.6183,60.1981 34.9516,60.6981 33.5,61.5 Z"/></g>
<g><path style="opacity:1" fill="#5d463f" d="M 56.5,28.5 C 56.1961,29.1499 55.8627,29.8165 55.5,30.5C 57.381,34.3542 60.381,36.3542 64.5,36.5C 63.3915,37.29 62.0581,37.79 60.5,38C 61.3104,43.7512 61.8104,49.5845 62,55.5C 64.4973,57.4782 67.3307,57.9782 70.5,57C 66.3653,54.1046 66.532,51.6046 71,49.5C 75.3023,52.6347 79.1356,56.3014 82.5,60.5C 79.3492,64.1514 76.0158,67.6514 72.5,71C 70.5372,71.8442 69.2039,71.3442 68.5,69.5C 69.4232,70.3029 70.4232,70.4696 71.5,70C 74.6828,66.9845 77.6828,63.8178 80.5,60.5C 77.516,57.0154 74.3493,53.682 71,50.5C 70.1667,51.3333 69.3333,52.1667 68.5,53C 70.0375,54.7073 71.7041,56.2073 73.5,57.5C 71.866,58.1611 70.0326,58.4944 68,58.5C 65.3291,58.7258 62.9958,58.0591 61,56.5C 60.6667,50.8333 60.3333,45.1667 60,39.5C 58.8951,36.0629 56.7284,33.5629 53.5,32C 45.3342,32.001 41.3342,36.1677 41.5,44.5C 39.4451,38.4257 41.4451,33.9257 47.5,31C 50.7207,30.7222 53.7207,29.8889 56.5,28.5 Z"/></g>
<g><path style="opacity:1" fill="#4d332f" d="M 48.5,36.5 C 49.0968,35.8614 49.9302,35.528 51,35.5C 52.6991,35.3866 53.8658,36.0532 54.5,37.5C 52.5648,36.8505 50.5648,36.5172 48.5,36.5 Z"/></g>
<g><path style="opacity:1" fill="#dfad1b" d="M 68.5,69.5 C 69.4194,66.9108 71.086,64.9108 73.5,63.5C 74.8333,61.5 74.8333,59.5 73.5,57.5C 71.7041,56.2073 70.0375,54.7073 68.5,53C 69.3333,52.1667 70.1667,51.3333 71,50.5C 74.3493,53.682 77.516,57.0154 80.5,60.5C 77.6828,63.8178 74.6828,66.9845 71.5,70C 70.4232,70.4696 69.4232,70.3029 68.5,69.5 Z"/></g>
<g><path style="opacity:1" fill="#5c4237" d="M 56.5,55.5 C 57.7368,56.9649 58.7368,58.6316 59.5,60.5C 57.2591,59.7002 56.2591,58.0336 56.5,55.5 Z"/></g>
<g><path style="opacity:1" fill="#60483f" d="M 32.5,61.5 C 32.5,62.5 32.5,63.5 32.5,64.5C 31.5987,63.7095 30.9321,62.7095 30.5,61.5C 31.1667,60.1667 31.8333,60.1667 32.5,61.5 Z"/></g>
<g><path style="opacity:1" fill="#533b36" d="M 59.5,60.5 C 64.1821,61.8908 68.8488,62.8908 73.5,63.5C 71.086,64.9108 69.4194,66.9108 68.5,69.5C 67.1974,67.2431 67.864,65.4098 70.5,64C 67.8333,63.6667 65.1667,63.3333 62.5,63C 61.0577,62.6232 60.0577,61.7899 59.5,60.5 Z"/></g>
<g><path style="opacity:1" fill="#5b453d" d="M 32.5,64.5 C 35.2809,68.0563 38.9476,69.7229 43.5,69.5C 38.3217,71.4142 34.655,69.7475 32.5,64.5 Z"/></g>
<g><path style="opacity:1" fill="#614d45" d="M 50.5,62.5 C 50.5,67.1667 48.1667,69.5 43.5,69.5C 44.8484,68.3994 46.3484,67.3994 48,66.5C 48.6082,64.9336 49.4415,63.6002 50.5,62.5 Z"/></g>
<g><path style="opacity:0.903" fill="#fefffe" d="M 21.5,80.5 C 22.2506,79.4265 23.2506,79.2599 24.5,80C 23.552,80.4828 22.552,80.6495 21.5,80.5 Z"/></g>
</svg>
